<svg xmlns="http://www.w3.org/2000/svg" width="64.943" height="64.943" viewBox="0 0 64.943 64.943"><defs><style>.a{fill:#404040;}</style></defs><g transform="translate(-27.367 -27.025)"><g transform="translate(27.367 27.025)"><path class="a" d="M50.278,17.807A10.487,10.487,0,0,1,39.8,7.332V0H25.139V7.332A10.487,10.487,0,0,1,14.664,17.807,14.681,14.681,0,0,0,0,32.471a32.471,32.471,0,0,0,64.943,0A14.681,14.681,0,0,0,50.278,17.807ZM32.471,62.848A30.412,30.412,0,0,1,2.095,32.471,12.584,12.584,0,0,1,14.664,19.9a12.584,12.584,0,0,0,12.57-12.57V2.095h2.095V4.19h2.095V2.095h2.095V13.7A13.758,13.758,0,0,1,32.4,19.154l-.736,1.718a15.835,15.835,0,0,0-1.288,6.274A11.655,11.655,0,0,0,31.8,32.738a5.933,5.933,0,0,0-2.065,1.077l-.112-.282a18.691,18.691,0,0,1-1.345-6.976,13.894,13.894,0,0,1,1.461-6.187,16.028,16.028,0,0,0,1.681-7.124V6.285H29.329v6.961a13.894,13.894,0,0,1-1.461,6.187,16.028,16.028,0,0,0-1.681,7.124A20.762,20.762,0,0,0,27.68,34.31l.256.639a6.27,6.27,0,0,0-7.2-2.077l-6.711,2.517L12.8,33.546A2.412,2.412,0,0,0,8.38,34.884v3.872A3.146,3.146,0,0,0,11.522,41.9v2.095a2.1,2.1,0,0,0,2.095,2.095h1.577a26.192,26.192,0,0,0,7.687,6.65l1.375.786a10.409,10.409,0,0,0,6.119,1.991,23.751,23.751,0,0,0,12.212-3.382L47.644,49.1A10.471,10.471,0,1,0,42.8,30.5a3.371,3.371,0,0,0-.9-.124c-1.8,0-3.382,1.37-4.345,3.685a5.977,5.977,0,0,0-3.436-1.533l-.03-.045a9.581,9.581,0,0,1-1.616-5.337A13.758,13.758,0,0,1,33.589,21.7l.736-1.718A15.835,15.835,0,0,0,35.614,13.7V2.095h2.095V7.332A12.584,12.584,0,0,0,50.278,19.9a12.584,12.584,0,0,1,12.57,12.57A30.412,30.412,0,0,1,32.471,62.848Zm8.655-22.723a3.931,3.931,0,0,1-1.691-2.614,6.013,6.013,0,0,0-.377-1.279l.064-.344c.555-2.044,1.671-3.417,2.776-3.417a1.513,1.513,0,0,1,.654.164l.625.3.521-.459a8.38,8.38,0,1,1,0,12.56l-1.387,1.571a10.536,10.536,0,0,0,2.612,1.682l-3.413,2.048a21.662,21.662,0,0,1-11.135,3.084A8.389,8.389,0,0,1,22,45.041a3.141,3.141,0,0,1,1.064-2.357l-1.385-1.571a5.266,5.266,0,0,0-.719.78A5.627,5.627,0,0,0,16.59,39.8H11.522a1.048,1.048,0,0,1-1.047-1.047V34.884a.329.329,0,0,1,.581-.176l2.151,3.226,8.268-3.1A4.192,4.192,0,0,1,26.7,36.885a7.138,7.138,0,0,0,6.418,3.966h1.451V38.756H33.116a5.047,5.047,0,0,1-3.771-1.677l1.36-1.36a3.935,3.935,0,0,1,6.665,2.136,6.034,6.034,0,0,0,2.6,4.013l1.353.9,1.162-1.743ZM20.513,48.533a24.1,24.1,0,0,1-3.964-4.121l-.314-.419H13.617V41.9H16.59a3.546,3.546,0,0,1,3.367,2.426h0a5.257,5.257,0,0,0-.056.716A10.41,10.41,0,0,0,20.513,48.533Z"/><g transform="translate(46.752 52.425)"><g transform="translate(0 0)"><rect class="a" width="2" height="2" transform="translate(0.244 0)"/></g></g><g transform="translate(55.754 26.425)"><g transform="translate(0 0)"><rect class="a" width="3" height="2" transform="translate(0.242 0)"/></g></g><g transform="translate(39.754 23.425)"><g transform="translate(0 0)"><rect class="a" width="1" height="2" transform="translate(0.242 0)"/></g></g><g transform="translate(18.754 28.425)"><g transform="translate(0 0)"><rect class="a" width="2" height="2" transform="translate(0.242 0)"/></g></g><g transform="translate(12.754 48.425)"><g transform="translate(0 0)"><rect class="a" width="3" height="3" transform="translate(0.242 0)"/></g></g><g transform="translate(31.753 58.425)"><g transform="translate(0 0)"><rect class="a" width="1" height="3" transform="translate(0.244 0)"/></g></g><g transform="translate(6.753 26.425)"><g transform="translate(0 0)"><rect class="a" width="2" height="2" transform="translate(0.244 0)"/></g></g></g></g></svg>