<svg xmlns="http://www.w3.org/2000/svg" width="73.956" height="64.68" viewBox="0 0 73.956 64.68"><defs><style>.a{fill:#404040;}</style></defs><g transform="translate(-21.512 -27.025)"><g transform="translate(21.512 27.025)"><g transform="translate(0 0)"><path class="a" d="M237.443,30.583h-1.082V29.5a.947.947,0,0,0-1.895,0v1.082h-1.082a.947.947,0,1,0,0,1.895h1.082V33.56a.947.947,0,0,0,1.895,0V32.478h1.082a.947.947,0,0,0,0-1.895Z" transform="translate(-208.784 -24.947)"/><path class="a" d="M202.916,199.549a.947.947,0,0,0,.947-.947v-.719a.947.947,0,1,0-1.895,0v.719A.947.947,0,0,0,202.916,199.549Z" transform="translate(-182.165 -172.057)"/><path class="a" d="M295.979,199.549a.947.947,0,0,0,.947-.947v-.719a.947.947,0,0,0-1.895,0v.719A.948.948,0,0,0,295.979,199.549Z" transform="translate(-263.472 -172.057)"/><path class="a" d="M232.257,259.107h.085a4.451,4.451,0,0,0,3.215-1.43.947.947,0,1,0-1.366-1.313,2.564,2.564,0,0,1-1.9.848,2.347,2.347,0,0,1-1.717-.819.947.947,0,1,0-1.418,1.256A4.222,4.222,0,0,0,232.257,259.107Z" transform="translate(-205.713 -223.725)"/><path class="a" d="M322.875,454.524a.947.947,0,1,0,0,1.895h7.893a.947.947,0,0,0,0-1.895Z" transform="translate(-286.97 -397.105)"/><path class="a" d="M98.4,62.239l-1-5.091a.947.947,0,1,0-1.86.364l1,5.089c.013.066.021.12.025.164a3.012,3.012,0,0,1-.384.02h-20.6L79.6,46.53l.756-3.06c5.707,1.5,13.2,3.864,14.346,9.731a.948.948,0,0,0,.929.766.959.959,0,0,0,.182-.018.948.948,0,0,0,.748-1.111c-1.075-5.512-6.4-8.291-11.628-10.013,1.5-1.241,2.712-1.847,6.03-1.251a1.165,1.165,0,0,0,1.351-.564,1.208,1.208,0,0,0-.391-1.487c-2.185-2.083-2.545-4.685-2.837-8.411V26.061s0-1.275,0-1.292c-.026-6.11-1.656-11.452-4.608-15.145l1.77-3.631a1.283,1.283,0,0,0-.558-1.93A27.793,27.793,0,0,0,71.831,0,27.8,27.8,0,0,0,57.98,4.064a1.28,1.28,0,0,0-.559,1.924l1.772,3.635a18.589,18.589,0,0,0-2.5,4.185.947.947,0,1,0,1.737.758,17.144,17.144,0,0,1,1.7-3.029l1.221,2.5a1.212,1.212,0,0,0,1.6.65A29.386,29.386,0,0,1,71.834,13a29.394,29.394,0,0,1,8.889,1.695,1.753,1.753,0,0,0,.513.084,1.169,1.169,0,0,0,1.086-.737l1.22-2.5a21.66,21.66,0,0,1,3.514,10.475,2.883,2.883,0,0,0-.892-.141h-.932a1.548,1.548,0,0,0-1.545-1.517h-.866a5.715,5.715,0,0,1-4.545-2.473l-1.054-1.632a.952.952,0,0,0-.119-.15,1.155,1.155,0,0,0-1.79,0,.941.941,0,0,0-.119.149l-1.206,1.867c-1.618,2.505-6.707,2.378-10.8,2.277-.782-.02-1.52-.038-2.211-.038h-1a1.548,1.548,0,0,0-1.545,1.517H57.5a2.882,2.882,0,0,0-.891.141,27.253,27.253,0,0,1,.5-3.314.948.948,0,1,0-1.851-.4,31.06,31.06,0,0,0-.676,6.428c0,.032,0,1.339,0,1.339v5.051c-.292,3.726-.652,6.328-2.838,8.412a1.211,1.211,0,0,0-.387,1.489,1.164,1.164,0,0,0,1.347.561c3.319-.6,4.527.01,6.032,1.251-5.231,1.722-10.553,4.5-11.628,10.012l-1.838,9.4a2.13,2.13,0,0,0,.311,1.769,2.361,2.361,0,0,0,1.909.669H96.177a2.361,2.361,0,0,0,1.909-.669A2.131,2.131,0,0,0,98.4,62.239ZM80.845,12.748A30.116,30.116,0,0,0,71.838,11.1H71.83a30.112,30.112,0,0,0-9.007,1.645L59.29,5.5a25.721,25.721,0,0,1,12.541-3.6A25.725,25.725,0,0,1,84.378,5.5ZM77.853,45.683A12.187,12.187,0,0,1,65.8,45.629L65.151,43l.016,0a1.791,1.791,0,0,0,1.513-1.821V39.541a13.565,13.565,0,0,0,1.706.775,9,9,0,0,0,6.9,0,13.556,13.556,0,0,0,1.706-.775v1.631a1.79,1.79,0,0,0,1.51,1.821l.018,0Zm7.381-18.233V23.766h.93A1.052,1.052,0,0,1,87.188,24.8c0,.04,0,1.26,0,1.26a2.3,2.3,0,0,1-1.994,2.18C85.219,27.975,85.235,27.712,85.235,27.451ZM84.8,30.236a5.623,5.623,0,0,0,2.388-.794v1.706c0,.025,0,.049,0,.074.26,3.329.6,5.992,2.19,8.251-3.257-.185-4.659,1.022-6.365,2.492l-.236.2c-1.2-.341-3.875-1.028-3.9-1.035v-2.8a16.471,16.471,0,0,0,5.917-8.1ZM60.328,22.249h.652c.667,0,1.394.018,2.164.037,4.563.114,10.241.255,12.436-3.143l.628-.973.5.767q.018.028.039.056a7.682,7.682,0,0,0,6.079,3.256h.518v5.2a7.466,7.466,0,0,1-.18,1.587.943.943,0,0,0-.035.147,14.527,14.527,0,0,1-8.5,9.355,7.124,7.124,0,0,1-5.581,0,14.527,14.527,0,0,1-8.5-9.356.933.933,0,0,0-.035-.146,7.46,7.46,0,0,1-.18-1.587v-5.2Zm-3.847,2.538A1.052,1.052,0,0,1,57.5,23.766h.93v3.685c0,.261.015.525.04.79a2.3,2.3,0,0,1-1.994-2.18S56.481,24.831,56.481,24.787ZM54.287,39.473c1.593-2.258,1.93-4.922,2.19-8.251,0-.025,0-.049,0-.074V29.442a5.625,5.625,0,0,0,2.388.794,16.472,16.472,0,0,0,5.917,8.1v2.8c-.023.007-2.7.694-3.9,1.035l-.236-.2C58.946,40.495,57.546,39.289,54.287,39.473Zm-6.8,23.312a2.989,2.989,0,0,1-.384-.02c0-.043.013-.1.025-.161l1.838-9.4c1.145-5.866,8.639-8.234,14.347-9.731l4.777,19.315Zm26.133,0H70.045L66.388,48a14.089,14.089,0,0,0,5.436,1.156h.058a14.013,14.013,0,0,0,5.388-1.114Z" transform="translate(-45.205 0)"/></g><g transform="translate(48.337 8.329)"><g transform="translate(0 0)"><path class="a" d="M58.479,20.888H52.963a1.128,1.128,0,1,1,0-2.256h4.306a4.236,4.236,0,0,0-3.991-3.75,1.128,1.128,0,0,1-.123-2.214,2.172,2.172,0,0,0,1.561-2.1A2.183,2.183,0,0,0,52.459,8.6a1.128,1.128,0,1,1,0-2.256,4.434,4.434,0,0,1,4.514,4.221A4.5,4.5,0,0,1,56,13.353c2.3,1.124,3.606,3.387,3.606,6.407A1.128,1.128,0,0,1,58.479,20.888Z" transform="translate(-33.988 -5.39)"/><path class="a" d="M33.709,20.888H29.4a1.128,1.128,0,0,1-1.128-1.128c0-3.02,1.31-5.283,3.606-6.407a4.5,4.5,0,0,1-.972-2.786,4,4,0,0,1,4.036-4.221,1.128,1.128,0,1,1,0,2.256,1.774,1.774,0,0,0-1.78,1.965,2.172,2.172,0,0,0,1.561,2.1,1.128,1.128,0,0,1-.123,2.214,4.237,4.237,0,0,0-3.991,3.75h3.1a1.128,1.128,0,1,1,0,2.256Z" transform="translate(-28.271 -5.39)"/><path class="a" d="M49.583,25.812a1.129,1.129,0,0,1-1.128-1.128,6.1,6.1,0,0,0-12.208,0,1.128,1.128,0,1,1-2.256,0,8.36,8.36,0,0,1,16.72,0A1.129,1.129,0,0,1,49.583,25.812Z" transform="translate(-29.689 -7.864)"/><path class="a" d="M43.432,15.239a5.082,5.082,0,1,1,5.082-5.082A5.088,5.088,0,0,1,43.432,15.239Zm0-7.907a2.826,2.826,0,1,0,2.826,2.826A2.829,2.829,0,0,0,43.432,7.331Z" transform="translate(-30.77 -5.075)"/></g></g></g></g></svg>