<svg xmlns="http://www.w3.org/2000/svg" width="77.615" height="64.68" viewBox="0 0 77.615 64.68"><defs><style>.a{fill:#404040;}</style></defs><g transform="translate(-19.585 -27.025)"><g transform="translate(19.585 27.025)"><g transform="translate(0 0)"><path class="a" d="M237.443,30.583h-1.082V29.5a.947.947,0,0,0-1.895,0v1.082h-1.082a.947.947,0,1,0,0,1.895h1.082V33.56a.947.947,0,0,0,1.895,0V32.478h1.082a.947.947,0,0,0,0-1.895Z" transform="translate(-208.784 -24.947)"/><path class="a" d="M202.916,199.549a.947.947,0,0,0,.947-.947v-.719a.947.947,0,1,0-1.895,0v.719A.947.947,0,0,0,202.916,199.549Z" transform="translate(-182.165 -172.057)"/><path class="a" d="M295.979,199.549a.947.947,0,0,0,.947-.947v-.719a.947.947,0,0,0-1.895,0v.719A.948.948,0,0,0,295.979,199.549Z" transform="translate(-263.472 -172.057)"/><path class="a" d="M232.257,259.107h.085a4.451,4.451,0,0,0,3.215-1.43.947.947,0,1,0-1.366-1.313,2.564,2.564,0,0,1-1.9.848,2.347,2.347,0,0,1-1.717-.819.947.947,0,1,0-1.418,1.256A4.222,4.222,0,0,0,232.257,259.107Z" transform="translate(-205.713 -223.725)"/><path class="a" d="M322.875,454.524a.947.947,0,1,0,0,1.895h7.893a.947.947,0,0,0,0-1.895Z" transform="translate(-286.97 -397.105)"/><path class="a" d="M98.4,62.239l-1-5.091a.947.947,0,1,0-1.86.364l1,5.089c.013.066.021.12.025.164a3.012,3.012,0,0,1-.384.02h-20.6L79.6,46.53l.756-3.06c5.707,1.5,13.2,3.864,14.346,9.731a.948.948,0,0,0,.929.766.959.959,0,0,0,.182-.018.948.948,0,0,0,.748-1.111c-1.075-5.512-6.4-8.291-11.628-10.013,1.5-1.241,2.712-1.847,6.03-1.251a1.165,1.165,0,0,0,1.351-.564,1.208,1.208,0,0,0-.391-1.487c-2.185-2.083-2.545-4.685-2.837-8.411V26.061s0-1.275,0-1.292c-.026-6.11-1.656-11.452-4.608-15.145l1.77-3.631a1.283,1.283,0,0,0-.558-1.93A27.793,27.793,0,0,0,71.831,0,27.8,27.8,0,0,0,57.98,4.064a1.28,1.28,0,0,0-.559,1.924l1.772,3.635a18.589,18.589,0,0,0-2.5,4.185.947.947,0,1,0,1.737.758,17.144,17.144,0,0,1,1.7-3.029l1.221,2.5a1.212,1.212,0,0,0,1.6.65A29.386,29.386,0,0,1,71.834,13a29.394,29.394,0,0,1,8.889,1.695,1.753,1.753,0,0,0,.513.084,1.169,1.169,0,0,0,1.086-.737l1.22-2.5a21.66,21.66,0,0,1,3.514,10.475,2.883,2.883,0,0,0-.892-.141h-.932a1.548,1.548,0,0,0-1.545-1.517h-.866a5.715,5.715,0,0,1-4.545-2.473l-1.054-1.632a.952.952,0,0,0-.119-.15,1.155,1.155,0,0,0-1.79,0,.941.941,0,0,0-.119.149l-1.206,1.867c-1.618,2.505-6.707,2.378-10.8,2.277-.782-.02-1.52-.038-2.211-.038h-1a1.548,1.548,0,0,0-1.545,1.517H57.5a2.882,2.882,0,0,0-.891.141,27.253,27.253,0,0,1,.5-3.314.948.948,0,1,0-1.851-.4,31.06,31.06,0,0,0-.676,6.428c0,.032,0,1.339,0,1.339v5.051c-.292,3.726-.652,6.328-2.838,8.412a1.211,1.211,0,0,0-.387,1.489,1.164,1.164,0,0,0,1.347.561c3.319-.6,4.527.01,6.032,1.251-5.231,1.722-10.553,4.5-11.628,10.012l-1.838,9.4a2.13,2.13,0,0,0,.311,1.769,2.361,2.361,0,0,0,1.909.669H96.177a2.361,2.361,0,0,0,1.909-.669A2.131,2.131,0,0,0,98.4,62.239ZM80.845,12.748A30.116,30.116,0,0,0,71.838,11.1H71.83a30.112,30.112,0,0,0-9.007,1.645L59.29,5.5a25.721,25.721,0,0,1,12.541-3.6A25.725,25.725,0,0,1,84.378,5.5ZM77.853,45.683A12.187,12.187,0,0,1,65.8,45.629L65.151,43l.016,0a1.791,1.791,0,0,0,1.513-1.821V39.541a13.565,13.565,0,0,0,1.706.775,9,9,0,0,0,6.9,0,13.556,13.556,0,0,0,1.706-.775v1.631a1.79,1.79,0,0,0,1.51,1.821l.018,0Zm7.381-18.233V23.766h.93A1.052,1.052,0,0,1,87.188,24.8c0,.04,0,1.26,0,1.26a2.3,2.3,0,0,1-1.994,2.18C85.219,27.975,85.235,27.712,85.235,27.451ZM84.8,30.236a5.623,5.623,0,0,0,2.388-.794v1.706c0,.025,0,.049,0,.074.26,3.329.6,5.992,2.19,8.251-3.257-.185-4.659,1.022-6.365,2.492l-.236.2c-1.2-.341-3.875-1.028-3.9-1.035v-2.8a16.471,16.471,0,0,0,5.917-8.1ZM60.328,22.249h.652c.667,0,1.394.018,2.164.037,4.563.114,10.241.255,12.436-3.143l.628-.973.5.767q.018.028.039.056a7.682,7.682,0,0,0,6.079,3.256h.518v5.2a7.466,7.466,0,0,1-.18,1.587.943.943,0,0,0-.035.147,14.527,14.527,0,0,1-8.5,9.355,7.124,7.124,0,0,1-5.581,0,14.527,14.527,0,0,1-8.5-9.356.933.933,0,0,0-.035-.146,7.46,7.46,0,0,1-.18-1.587v-5.2Zm-3.847,2.538A1.052,1.052,0,0,1,57.5,23.766h.93v3.685c0,.261.015.525.04.79a2.3,2.3,0,0,1-1.994-2.18S56.481,24.831,56.481,24.787ZM54.287,39.473c1.593-2.258,1.93-4.922,2.19-8.251,0-.025,0-.049,0-.074V29.442a5.625,5.625,0,0,0,2.388.794,16.472,16.472,0,0,0,5.917,8.1v2.8c-.023.007-2.7.694-3.9,1.035l-.236-.2C58.946,40.495,57.546,39.289,54.287,39.473Zm-6.8,23.312a2.989,2.989,0,0,1-.384-.02c0-.043.013-.1.025-.161l1.838-9.4c1.145-5.866,8.639-8.234,14.347-9.731l4.777,19.315Zm26.133,0H70.045L66.388,48a14.089,14.089,0,0,0,5.436,1.156h.058a14.013,14.013,0,0,0,5.388-1.114Z" transform="translate(-45.205 0)"/></g><g transform="translate(47.381 2.107)"><path class="a" d="M17.124,30.233H13.109a1.182,1.182,0,0,1-1.181-1.181V27.289a12.475,12.475,0,0,1-3.163-1.312L7.518,27.225a1.183,1.183,0,0,1-1.67,0L3.008,24.386a1.182,1.182,0,0,1,0-1.67l1.248-1.248a12.475,12.475,0,0,1-1.312-3.163H1.181A1.182,1.182,0,0,1,0,17.124V13.109a1.182,1.182,0,0,1,1.181-1.181H2.94A12.475,12.475,0,0,1,4.25,8.76L3.008,7.517a1.182,1.182,0,0,1,0-1.67L5.847,3.008a1.183,1.183,0,0,1,1.67,0L8.755,4.246a12.475,12.475,0,0,1,3.173-1.317V1.181A1.182,1.182,0,0,1,13.109,0h4.015a1.182,1.182,0,0,1,1.181,1.181V2.925A12.481,12.481,0,0,1,21.483,4.24l1.233-1.233a1.182,1.182,0,0,1,1.67,0l2.839,2.839a1.183,1.183,0,0,1,0,1.67L25.993,8.75a12.481,12.481,0,0,1,1.315,3.178h1.744a1.182,1.182,0,0,1,1.181,1.181v4.015a1.182,1.182,0,0,1-1.181,1.181H27.3a12.483,12.483,0,0,1-1.317,3.173l1.238,1.238a1.182,1.182,0,0,1,0,1.67l-2.839,2.839a1.183,1.183,0,0,1-1.67,0l-1.242-1.242a12.482,12.482,0,0,1-3.168,1.31v1.759a1.182,1.182,0,0,1-1.181,1.181ZM8.677,24.641a.59.59,0,0,1,.318.093,11.307,11.307,0,0,0,3.652,1.515.591.591,0,0,1,.463.577v2.228h4.015V26.828a.59.59,0,0,1,.464-.577,11.315,11.315,0,0,0,3.657-1.512.591.591,0,0,1,.735.08l1.571,1.571,2.839-2.839-1.567-1.567a.591.591,0,0,1-.08-.736,11.314,11.314,0,0,0,1.52-3.661.59.59,0,0,1,.576-.463h2.213V13.109h-2.21a.59.59,0,0,1-.577-.464,11.307,11.307,0,0,0-1.518-3.666.591.591,0,0,1,.08-.735L26.39,6.682,23.551,3.843,21.989,5.4a.591.591,0,0,1-.735.08,11.313,11.313,0,0,0-3.666-1.518.59.59,0,0,1-.464-.577V1.181H13.109V3.394a.591.591,0,0,1-.463.577A11.313,11.313,0,0,0,8.985,5.49a.59.59,0,0,1-.736-.08L6.682,3.843,3.843,6.682,5.414,8.253a.59.59,0,0,1,.081.735,11.315,11.315,0,0,0-1.512,3.657.59.59,0,0,1-.577.464H1.181v4.015H3.409a.591.591,0,0,1,.577.463A11.31,11.31,0,0,0,5.5,21.239a.591.591,0,0,1-.08.735L3.843,23.551,6.682,26.39l1.577-1.577a.591.591,0,0,1,.418-.173Zm0,0" transform="translate(0 0)"/><path class="a" d="M118.685,127.256a8.62,8.62,0,1,1,4.214-16.141.59.59,0,1,1-.578,1.03,7.44,7.44,0,1,0,3.022,3.169.59.59,0,1,1,1.056-.528,8.618,8.618,0,0,1-7.715,12.47Zm0,0" transform="translate(-103.568 -103.522)"/><path class="a" d="M344.943,153.193a.591.591,0,1,1,.417-.173A.594.594,0,0,1,344.943,153.193Zm0,0" transform="translate(-324.018 -143.036)"/><path class="a" d="M172.973,191.032a.59.59,0,0,1-.418-.173l-3.734-3.734a.59.59,0,0,1,0-.835l2.118-2.118a.591.591,0,0,1,.835,0l1.2,1.2,2.866-2.865a.59.59,0,0,1,.835,0l2.118,2.118a.591.591,0,0,1,0,.835l-5.4,5.4a.591.591,0,0,1-.418.173Zm-2.9-4.325,2.9,2.9,4.566-4.566-1.283-1.283-2.865,2.865a.591.591,0,0,1-.835,0l-1.2-1.2Zm0,0" transform="translate(-158.69 -171.566)"/></g></g></g></svg>