<svg xmlns="http://www.w3.org/2000/svg" width="70.919" height="65.586" viewBox="0 0 70.919 65.586"><defs><style>.a{fill:#404040;}</style></defs><g transform="translate(-24.066 -27.075)"><g transform="translate(24.066 27.075)"><g transform="translate(0 0)"><path class="a" d="M143.99,53.051c3.991-.2,6.447-2.77,6.447-6.814a7.824,7.824,0,0,0-.053-.906c2.677-1.71,3.828-4,3.828-7.547s-1.151-5.836-3.828-7.547a7.826,7.826,0,0,0,.053-.906c0-4.044-2.456-6.617-6.447-6.814a6.309,6.309,0,0,0-5.578-3.266,4.606,4.606,0,0,0-3.435,1.264q-.139.137-.266.288-.127-.151-.266-.288a4.608,4.608,0,0,0-3.435-1.264,6.31,6.31,0,0,0-5.578,3.266c-3.991.2-6.447,2.77-6.447,6.814a7.851,7.851,0,0,0,.053.906c-2.677,1.71-3.828,4-3.828,7.547s1.151,5.836,3.828,7.547a7.822,7.822,0,0,0-.053.906c0,4.044,2.456,6.617,6.447,6.814a6.309,6.309,0,0,0,5.578,3.266h.093a4.574,4.574,0,0,0,3.342-1.264q.139-.137.266-.288.127.151.266.288a4.573,4.573,0,0,0,3.342,1.264h.093A6.31,6.31,0,0,0,143.99,53.051Zm-10.664-3.128a4.566,4.566,0,0,1-.826,3.157,1.93,1.93,0,0,1-1.451.466,3.562,3.562,0,0,1-3.236-1.924,2.218,2.218,0,0,1,.85-.877,2.194,2.194,0,0,1,1.678-.221,1.385,1.385,0,0,0,.718-2.676,4.993,4.993,0,0,0-5.668,2.425c-2.414-.171-3.637-1.527-3.637-4.037a5.049,5.049,0,0,1,.091-.952,1.951,1.951,0,0,0-.94-2.06c-2.161-1.244-2.926-2.668-2.926-5.441s.766-4.2,2.925-5.441a1.952,1.952,0,0,0,.94-2.062,5.034,5.034,0,0,1-.09-.951c0-2.691,1.406-4.056,4.178-4.056h.017c.04,0,.081,0,.121,0a1.578,1.578,0,0,1,.9,1.859,1.385,1.385,0,1,0,2.677.712,4.359,4.359,0,0,0-1.461-4.5,3.666,3.666,0,0,1,2.858-1.325,1.929,1.929,0,0,1,1.451.466,4.566,4.566,0,0,1,.826,3.158Zm9.122-1.485a1.385,1.385,0,1,0-2.677-.712,4.358,4.358,0,0,0,1.46,4.5,3.666,3.666,0,0,1-2.858,1.325,1.921,1.921,0,0,1-1.451-.466,4.566,4.566,0,0,1-.826-3.157V25.646a4.566,4.566,0,0,1,.826-3.157,1.928,1.928,0,0,1,1.451-.466,3.562,3.562,0,0,1,3.236,1.924,2.218,2.218,0,0,1-.85.877,2.194,2.194,0,0,1-1.678.221,1.385,1.385,0,0,0-.718,2.675,5,5,0,0,0,1.3.172,5.005,5.005,0,0,0,4.369-2.6c2.414.171,3.637,1.527,3.637,4.037a5.049,5.049,0,0,1-.091.952,1.951,1.951,0,0,0,.94,2.06c2.161,1.244,2.926,2.668,2.926,5.441s-.766,4.2-2.925,5.441a1.952,1.952,0,0,0-.94,2.062,5.035,5.035,0,0,1,.09.951c0,2.691-1.406,4.056-4.178,4.056h-.011q-.064,0-.127,0A1.578,1.578,0,0,1,142.447,48.438Z" transform="translate(-99.251 -19.252)"/><path class="a" d="M174.016,132.583a4.047,4.047,0,0,0-2.973,6.8q.08.086.164.169a1.385,1.385,0,0,0,1.957-1.961c-.032-.032-.064-.065-.095-.1a1.24,1.24,0,0,1-.23-1.363,1.264,1.264,0,0,1,1.177-.774,1.385,1.385,0,1,0,0-2.77Z" transform="translate(-146.413 -116.885)"/><path class="a" d="M304.959,137.589a1.385,1.385,0,0,0,1.957,1.961q.084-.083.164-.17a4.047,4.047,0,0,0-2.973-6.8,1.385,1.385,0,1,0,0,2.77,1.264,1.264,0,0,1,1.177.774,1.24,1.24,0,0,1-.23,1.362Q305.008,137.541,304.959,137.589Z" transform="translate(-260.79 -116.886)"/><path class="a" d="M23.085,106.927l-9.656-9.515V87.168a4.2,4.2,0,0,0-4.2-4.2l-.145,0a4.173,4.173,0,0,0-.7.085V82.033a4.232,4.232,0,0,0-4-4.272,4.47,4.47,0,0,0-3.245,1.19,3.452,3.452,0,0,0-1.11,2.5c0,3.267-.02,18.487-.033,23.252,0,.112,0,.224,0,.336a12.7,12.7,0,0,0,4.128,9.042c.022.02.044.04.068.058L15,122.856v11a1.385,1.385,0,0,0,1.385,1.385H26.12a1.385,1.385,0,0,0,1.385-1.385V117.488A14.917,14.917,0,0,0,23.085,106.927ZM9.173,85.742h.058a1.429,1.429,0,0,1,1.427,1.427v8.665a4.457,4.457,0,0,0-2.275.22V86.019A1.41,1.41,0,0,1,9.173,85.742Zm15.562,46.727H17.769V122.194a1.385,1.385,0,0,0-.516-1.078l-11.28-9.1a9.911,9.911,0,0,1-3.2-7.026q0-.137,0-.276c.013-4.766.033-19.991.033-23.259a.7.7,0,0,1,.252-.5,1.7,1.7,0,0,1,1.2-.427,1.485,1.485,0,0,1,1.356,1.5V99.059a4.5,4.5,0,0,0,1.117,4.348l9.756,10.206a1.385,1.385,0,1,0,2-1.914L8.727,101.486l-.014-.015A1.716,1.716,0,0,1,8.7,99.079l.181-.164a1.707,1.707,0,0,1,2.28.148l.015.015,9.969,9.823a12.13,12.13,0,0,1,3.594,8.588v14.981Z" transform="translate(0 -69.652)"/><path class="a" d="M340.895,81.456a3.452,3.452,0,0,0-1.11-2.505,4.473,4.473,0,0,0-3.245-1.19,4.232,4.232,0,0,0-4,4.272v1.024a4.154,4.154,0,0,0-.7-.084l-.147,0a4.2,4.2,0,0,0-4.2,4.2V97.412l-9.656,9.515a14.918,14.918,0,0,0-4.42,10.561v16.365a1.385,1.385,0,0,0,1.385,1.385h9.736a1.385,1.385,0,0,0,1.385-1.385v-11l10.8-8.712q.035-.028.068-.058a12.7,12.7,0,0,0,4.128-9.043q0-.166,0-.335C340.915,99.943,340.895,84.723,340.895,81.456Zm-9.208,4.284h.068a1.408,1.408,0,0,1,.789.278V96.052a4.458,4.458,0,0,0-2.275-.22V87.168A1.427,1.427,0,0,1,331.687,85.741Zm6.468,19.25a9.911,9.911,0,0,1-3.2,7.026l-11.28,9.1a1.385,1.385,0,0,0-.516,1.078v10.275h-6.966v-14.98a12.131,12.131,0,0,1,3.594-8.588l9.969-9.823.015-.015a1.706,1.706,0,0,1,2.279-.148l.183.165a1.716,1.716,0,0,1-.017,2.391l-.012.012-4.921,5.117a1.385,1.385,0,0,0,2,1.92l4.916-5.113a4.5,4.5,0,0,0,1.118-4.349V82.033a1.485,1.485,0,0,1,1.356-1.5,1.7,1.7,0,0,1,1.2.427.7.7,0,0,1,.252.5c0,3.268.02,18.493.033,23.259C338.158,104.808,338.157,104.9,338.155,104.991Z" transform="translate(-270.008 -69.653)"/><path class="a" d="M381.976,316.561a1.384,1.384,0,1,0-.491,1.668A1.4,1.4,0,0,0,381.976,316.561Z" transform="translate(-326.774 -274.642)"/></g></g></g></svg>