<svg xmlns="http://www.w3.org/2000/svg" width="61.727" height="62.773" viewBox="0 0 61.727 62.773"><defs><style>.a{fill:#404040;}</style></defs><g transform="translate(-29.878 -28.579)"><g transform="translate(29.878 28.579)"><path class="a" d="M61.588,29.2V8.076L59.158,2H22.17l-2.43,6.076V18.739H17.647V2H11.37V4.092H3V16.647h8.37V28.155a3.139,3.139,0,0,0,6.277,0V25.017h2.092V29.2a3.139,3.139,0,1,0,0,6.277V52.218H36.479v2.092H19.739v6.277h2.285a3.1,3.1,0,0,0-.193,1.046,3.139,3.139,0,1,0,6.277,0,3.1,3.1,0,0,0-.193-1.046H53.411a3.1,3.1,0,0,0-.193,1.046,3.139,3.139,0,1,0,6.277,0,3.1,3.1,0,0,0-.193-1.046h2.285V54.311H44.849V52.218H61.588V35.479a3.139,3.139,0,1,0,0-6.277ZM21.832,8.478l1.755-4.386H57.741L59.5,8.478V20.832H53.26a5.239,5.239,0,0,0,.978-4.422,5.474,5.474,0,0,0-3.91-3.917,6.455,6.455,0,0,0-5.142,1.443l-.338-.674V11.416a3.139,3.139,0,0,0-6.277,0v2.092a1.046,1.046,0,0,0,.111.468l.289.579h-2.72L35.385,11.1c-.525-1.642-1.87-1.779-3.091-1.779H30.2a3.17,3.17,0,0,0-2.229,1,3.04,3.04,0,0,0-.909,2.164A2.981,2.981,0,0,0,30.2,15.6h.23l.847,3.393a4.86,4.86,0,0,0,.942,1.838H21.832ZM33.31,18.485,32.264,14.3a1.046,1.046,0,0,0-1.016-.792H30.2c-.712,0-1.025-.321-1.046-1.074a.99.99,0,0,1,.314-.648,1.133,1.133,0,0,1,.732-.37h2.092c.995,0,1.022.087,1.078.254l1.046,4.185a1.046,1.046,0,0,0,1.015.792h5.231a1.046,1.046,0,0,0,.942-1.514l-.942-1.872V11.416a1.046,1.046,0,1,1,2.092,0v2.092a1.046,1.046,0,0,0,.111.468l1.046,2.092a1.046,1.046,0,0,0,1.674.272c.793-.793,2.7-2.2,4.242-1.816a3.348,3.348,0,0,1,2.368,2.36,3.115,3.115,0,0,1-.611,2.693,3.3,3.3,0,0,1-2.553,1.254H36.479a3.329,3.329,0,0,1-3.169-2.347ZM5.092,14.555V6.185H11.37v8.37Zm8.37-10.462h2.092V18.739H13.462Zm2.092,24.063a1.046,1.046,0,1,1-2.092,0V25.017h2.092Zm-2.092-5.231V20.832h6.277v2.092Zm8.37,0H59.5V29.2H57.4V25.017h-8.37V29.2H46.941V25.017H36.479V29.2H21.832ZM55.311,29.2H51.126V27.109h4.185Zm-10.462,0H38.571V27.109h6.277ZM21.832,35.479H36.479v6.277H21.832Zm0,14.647V43.849H36.479v6.277Zm4.185,11.508a1.046,1.046,0,1,1-1.046-1.046A1.046,1.046,0,0,1,26.017,61.634Zm31.387,0a1.046,1.046,0,1,1-1.046-1.046A1.046,1.046,0,0,1,57.4,61.634ZM59.5,56.4V58.5H21.832V56.4ZM42.756,54.311H38.571V35.479h4.185ZM59.5,50.126H44.849V35.479H59.5Zm2.092-16.739H19.739a1.046,1.046,0,0,1,0-2.092H61.588a1.046,1.046,0,1,1,0,2.092Z" transform="translate(-3 -2)"/><path class="a" d="M53.139,9.386V14.37h2.092V8.892L53.785,6H50V8.092h2.492Z" transform="translate(-0.828 -1.815)"/><path class="a" d="M46,6h2.092V8.092H46Z" transform="translate(-1.013 -1.815)"/><path class="a" d="M23,6h2.092V8.092H23Z" transform="translate(-2.076 -1.815)"/><path class="a" d="M24,36h8.37v2.092H24Z" transform="translate(-2.029 -0.429)"/><path class="a" d="M24,44h8.37v2.092H24Z" transform="translate(-2.029 -0.059)"/><path class="a" d="M45,38h2.092v6.277H45Z" transform="translate(-1.059 -0.336)"/></g></g></svg>