<svg xmlns="http://www.w3.org/2000/svg" width="311.043" height="206.473" viewBox="0 0 311.043 206.473">
  <g id="nurse" transform="translate(0.698 0.411)">
    <g id="Group_1077" data-name="Group 1077">
      <g id="Group_1062" data-name="Group 1062" opacity="0.56">
        <path id="Path_15030" data-name="Path 15030" d="M339.7,261.542c3.115-.617,3.985-2.149,2.595-5.188-.733-1.6-.261-2.085,1.2-2.394,4.031-.851,7.181.627,9.674,3.7,2.051,2.525,4.428,4.415,7.757,4.935a5.322,5.322,0,0,1,2.373,1.07c1.8,1.43,3.546,2.316,5.722.682a1.782,1.782,0,0,1,1.517.159,28.757,28.757,0,0,1,.735,4.161c.03.262-.353.653-.638.854-1.314.925-1.3,1.912-.386,3.149.294.4.187,1.091.263,1.649l-7.5,5.743-3.556,2.294a19.116,19.116,0,0,0-.882-3.236c-.444-.992-1.4-1.706-2.28-.437-1,1.431-1.761,3.025-2.626,4.547l-1.42-.748,4.9,3.295c1.533-2.27,3.192-.777,4.619-.4a46.919,46.919,0,0,0-3.249,3.9c-.213.31.314,1.264.676,1.8a22.689,22.689,0,0,0,1.745,2.029c.965,1.12,1.9,2.262,2.889,3.365.454.509.989.944,1.591,1.511l-1.471,1.229c.287.253.49.587.693.588,1.938,0,2.092.885,1.521,2.518-.73,2.089-1.062,4.32-1.824,6.4-.934,2.547-2.369,4.775-5.271,5.493-1.888.467-3.775.942-5.681,1.324a3.387,3.387,0,0,0-2.607,4.307c-1.952-1.764-2.844-4.832-5.758-3.189a24.744,24.744,0,0,0-2.421-1.67c-.9-.48-1.929-1.171-2.824-1.071a18.2,18.2,0,0,0-4.042,1.4c-.379.082-1.088.163-1.089.247a1.644,1.644,0,0,1-1.58,1.872c-.355.062-.573.919-.853,1.413l-2.178,1.44a3.081,3.081,0,0,0-1.476,3.917c1.129,3.2,2.239,6.4,3.385,9.6.631,1.757.719,3.415-.635,4.9-.062-.039-.184-.093-.179-.113,1.127-4.209-2.237-7.292-2.794-11.087a7.413,7.413,0,0,0-1.059-2.106l-2.458,2.65a9.5,9.5,0,0,1-1.376-1.45c-.983-1.593-2.565-3.21-2.644-4.878-.129-2.7-3.648-2.185-3.584-4.623,1.059-1.544.253-3.326-2.031-4.471l.87-1.734c-1.77-1.043-3.236-1.964-4.762-2.774a7.939,7.939,0,0,0-2.081-.345l2.762,7.582c-.733.2-1.479.363-2.2.609-1.132.387-2.451.659-1.834,2.42a.889.889,0,0,1-.2.783c-1.652,1.382-3.4,2.658-5,4.1-2,1.8-3.892,3.708-5.812,5.589a1.138,1.138,0,0,0-.357.748c.165,3.168.366,6.335.462,7.918l-4.158,6.188a24.673,24.673,0,0,1-2.26-3.306q-3.208-7.045-6.23-14.175c-1.085-2.544-2.327-5.045-1.568-8.027.182-.714-.58-1.669-.764-2.143-.919.631-1.783,1.667-2.777,1.812-1.792.262-2.887-.958-3.4-2.685l1.77-1.088a8.765,8.765,0,0,1-5.95-3.861,3.036,3.036,0,0,0-3.985-1.092c-2.062.992-4.083.3-5.947-.841,1.928-2.269,1.453-4.2-.768-5.958-.3-.236-.382-.749-.564-1.133,1.787-.137,3.854.25,5.3-.525a46.285,46.285,0,0,0,7.54-5.48c.751-.627,1.026-1.865,1.431-2.859.432-1.06,1.212-2.244,1.033-3.226-.3-1.637.409-2.074,1.64-2.523a19.909,19.909,0,0,0,2.424-1.26c.724-2.431-1.9-2.85-2.64-4.4.989-.517,1.991-1.013,2.966-1.554,1.957-1.087,3.9-2.2,5.85-3.3,1.351-1.146,1.185-2.31.186-3.628a6.72,6.72,0,0,1-.684-1.946c2.152-.708,2.354-3.87,5.058-3.993.465-.021,1.025-.842,1.305-1.41a31.616,31.616,0,0,0,1.18-3.13l1.322.44c.7.627,1.316,1.638,2.113,1.812,2.669.582,3.907,2.563,5.352,4.54.656.9,2.067,1.9,3.018,1.8,3.414-.379,5.678,1.364,7.951,3.418.609.55,1.6,1.239,2.246,1.094,3.813-.858,7.215.8,10.774,1.48a6.4,6.4,0,0,0,2.371.233c2.494-.521,4.983-1.114,7.415-1.869.818-.254,2.172-1.325,2.076-1.6-1.134-3.208,1.082-3.193,3.1-3.55a7.385,7.385,0,0,0,1.972-.952c1.458-.771,2.908-1.556,4.845-2.595a28.253,28.253,0,0,0-4.614-1.406C340.219,264.473,339.888,264.285,339.7,261.542Zm-44.387,37.585c-.631.552-1.639,1.045-1.626,1.507.023.785.509,2.009,1.116,2.249,3.867,1.534,7.809,2.883,11.76,4.193.46.153,1.511-.185,1.607-.5.187-.614.139-1.725-.257-2.011a19.532,19.532,0,0,0-4.133-2.244c-1.782-.715-3.673-1.157-5.488-1.8C297.354,300.188,296.479,299.68,295.312,299.126Z" transform="translate(-120.056 -222.799)" fill="#404040" stroke="#fff" stroke-width="1" opacity="0.56"/>
        <path id="Path_15032" data-name="Path 15032" d="M179.374,392.948l-4.828,6.6a11.105,11.105,0,0,0-6.34-5.731,4.585,4.585,0,0,1-1.189-.927l-1.342-3.928a10.52,10.52,0,0,0,1.169-1.581c.948-1.939-.5-5.027-2.365-4.925a37.612,37.612,0,0,0-4.5.768c-1.169-.633-2.537-2-3.467-1.748-2.038.55-2.778-.42-3.584-1.781-.025-.352.089-.837-.1-1.034-2.768-2.92-5.881-5.574-7.051-9.673-.086-.3-.509-.51-.774-.761-1.151-2.952-1.877-5.9.018-8.848l1.76-.647c0-1.753-.091-3.583.032-5.4.082-1.206-.691-2.606,1.071-3.572.549-.3.242-2.167.344-3.556h14.844l0-.414H148.267V327.537l15.1.9,1.008,1.4.907,1.824-1.138,2.8-2.841-3.277-.389.219c.95,1.707,1.881,3.425,2.855,5.119,2.033,3.538,4.18,7.015,6.078,10.624.566,1.076.253,2.589.715,3.754a23.756,23.756,0,0,0,2.207,3.629c-1.339,1.4-2.9,2.661-2.957,4.862-.035,1.292.267,2.208,1.822,1.941,3.729-.64,6.476.922,8.638,3.821l.422,2.16c.684,3.573,2.764,5.677,6.416,6.176a6.023,6.023,0,0,1,2.095.59c.362.2.775,1.124.665,1.237-1.969,2.031-2.968,4.989-6.31,5.739a7.239,7.239,0,0,0-4.188,3.04C177.715,386.874,178.2,389.99,179.374,392.948Z" transform="translate(-72.015 -253.219)" fill="#404040" stroke="#fff" stroke-width="1" opacity="0.56"/>
        <path id="Path_15033" data-name="Path 15033" d="M62.235,313c5.262-4.27,11.4-4.159,17.639-3.529a18.392,18.392,0,0,1-.725,3.979,3.855,3.855,0,0,0,.485,4.056,43.39,43.39,0,0,1,2.443,4.777c.162,2.152.667,4.349.4,6.447-.342,2.706-.068,3.979,2.281,5.48.6.384,1.139.871,1.706,1.31L74.987,343.9l-4.782-.881c-1.979-1.369-4-2.68-5.928-4.122-2.628-1.968-5.182-4.036-7.767-6.062L55.232,332l-4.887-3.57-.457-3.485a18.872,18.872,0,0,1,2.566-1.246c2.74-.868,5.406-1.756,6.871-4.581a1.905,1.905,0,0,1,1.546-.608c1.8.138,2.19-.73,1.891-2.282C62.555,315.158,62.409,314.076,62.235,313Z" transform="translate(-33.289 -245.639)" fill="#404040" stroke="#fff" stroke-width="1" opacity="0.56"/>
        <path id="Path_15034" data-name="Path 15034" d="M140.366,416.255c.805,1.361,1.546,2.331,3.584,1.781.931-.252,2.3,1.115,3.467,1.747-.3,1.459-.259,3.111-.968,4.328-1,1.709-1.312,3.2-.353,4.93-1.73.6-2.636,1.612-1.751,3.517l-.477.461c-.394,2.525-1.753,5.111.892,7.352a1.645,1.645,0,0,1,.032,2.747c-1.979.979-2.153,3.052-2.032,4.676.118,1.587,1.347,3.09,2.339,5.151-.938-.205-2.185-.1-2.651-.647-2.093-2.479-4.969-2.581-7.784-2.977-.356-.234-.758-.72-1.059-.662-2.124.4-2.456-1.031-2.7-2.54a15.886,15.886,0,0,0-.251-2.386,5.2,5.2,0,0,0-1.4-2.6c-1.059-.737-2.177-.564-3.155.76-1.232,1.669-3.22,1.5-3.786-.334-.822-2.667-2.576-3.032-4.883-2.837-1.016.085-2.045.021-3.068.025-1.854.193-.448-1.245-.88-1.764,2.676-.257,5.26-.71,6.671-3.42a42.742,42.742,0,0,0,4.8-13.787c.383-3.142.876-3.373,3.919-2.041a4.67,4.67,0,0,0,2.483.563C134.379,417.728,137.365,416.955,140.366,416.255Z" transform="translate(-59.452 -289.78)" fill="#404040" stroke="#fff" stroke-width="1" opacity="0.56"/>
        <path id="Path_15035" data-name="Path 15035" d="M196.649,355.184c-.215-.031-.55.016-.629-.1-2.263-3.466-5.8-5.981-6.952-10.336-.57-2.157-2.333-4.029-3.686-5.938-1.519-2.144-3.246-4.142-4.733-6.306-.3-.431.081-1.326.148-2.006l.9-.456c1.051-.285,2.365-.291,3.063-.95.506-.477.194-1.821.258-2.99l2.854-1.352c1.961.921,4.172,1.526,5.827,2.834,2.625,2.076,5.028,4.116,8.618,2.452a37.75,37.75,0,0,1,3.238,3.459c.743,1.006,1.051,2.326,1.725,3.4a19.758,19.758,0,0,0,1.871,1.994c.58.68,1.075,1.431,1.608,2.152,1.5,2.541,4.179,2.561,6.611,3.115,2.035,1.946,1.8,3.984-.745,5.595-1.156.733-2.433,1.275-3.654,1.9-2.832-.13-5.828-.283-7.75,2.166a2.741,2.741,0,0,1-3.422,1.171C200.127,354.567,198.293,353.56,196.649,355.184Z" transform="translate(-87.131 -252.068)" fill="#404040" stroke="#fff" stroke-width="1" opacity="0.56"/>
        <path id="Path_15036" data-name="Path 15036" d="M237.462,319.984c.183.385.265.9.564,1.133,2.222,1.754,2.7,3.689.768,5.958-.234.305-.4.734-.713.9-1.769.926-5.651-.108-6.939-1.69-.934-1.148-1.788-2.345-3.746-1.494-2.206.959-6.741-1.105-7.9-3.218a8.579,8.579,0,0,0-2.026-2.862c-.7-.514-1.9-.338-2.879-.469-1.7-2.028-3.427-4.027-5.066-6.1-.48-.608-1.1-1.515-.966-2.13.668-3.009-1.723-4.182-3.242-5.89a17.073,17.073,0,0,1-.6-2.482,13.566,13.566,0,0,1,.158-2.348c1.349.168,2.23,2.5,3.97.858,1.572-.591,2.639.162,3.549,1.335.389.726.6,1.7,1.2,2.123,1.163.809,2.672,1.132,3.807,1.968,1.556,1.146,2.67.284,3.852-.47a14.5,14.5,0,0,0,1.646-1.414,5.909,5.909,0,0,1,6.046-.446,25.925,25.925,0,0,1,3.62,1.548,18.263,18.263,0,0,1,2.706,2.855c-.434,1.828-1.172,3.6-.178,5.53C236.2,315.32,237.525,317.419,237.462,319.984Z" transform="translate(-97.087 -241.577)" fill="#404040" stroke="#fff" stroke-width="1" opacity="0.56"/>
        <path id="Path_15038" data-name="Path 15038" d="M109.03,340.689c-.567-.44-1.1-.926-1.706-1.31-2.349-1.5-2.623-2.774-2.281-5.48.265-2.1-.239-4.295-.4-6.447q1.76-2.878,3.522-5.757c2.675.641,5.773.272,7.327,3.49.282.584,1.639.653,2.5.948.673.229,1.343.475,2.031.648.623.157,1.6.533,1.838.275a4.323,4.323,0,0,0,1.282-2.5c.025-1.959,1.663-3.062,3.847-2.2a21.147,21.147,0,0,1,3.626,1.884,2.062,2.062,0,0,1,.827,1.472c.054,6.734.005,13.468.059,20.2.013,1.6-1.326,1.652-2.181,2.286-.718-.357-1.459-.676-2.152-1.078-2.407-1.395-4.734-2.946-7.217-4.189-1.739-.871-3.61-2.253-5.648-.482Z" transform="translate(-55.854 -250.811)" fill="#404040" stroke="#fff" stroke-width="1" opacity="0.56"/>
        <path id="Path_15039" data-name="Path 15039" d="M153.77,518.48l.78,1.632c-2.111,2.5-4.176,4.786-6.064,7.214a19.768,19.768,0,0,1-7.894,5.9c-.24.106-.6.224-.791.122-2.49-1.334-4.906-.291-7.318.226-2.277.487-4.413-1.262-3.7-3.448.461-1.421-.22-2.138-.7-3.123-.864-1.789-1.7-3.594-2.541-5.392,1.926.572,3.861,2.124,5.767-.043.147-1.669.235-3.347.473-5a5.6,5.6,0,0,1,.824-1.608l1.036,3.948c.853-.531,1.973-.844,2.379-1.562.854-1.511,1.679-1.964,3.285-1.091a2.148,2.148,0,0,0,1.969-.282c2.322-2.168,4.525-4.463,6.769-6.714l4.387.443a22.406,22.406,0,0,0,.141,2.581c.288,1.74,1.038,3.355-.206,5.181C151.73,518.391,152.607,519.041,153.77,518.48Zm-7.962,7.867,1.928-2.267c-.534-.448-1.276-1.376-1.561-1.252a4.405,4.405,0,0,0-1.822,1.757C144.246,524.76,145.111,525.525,145.808,526.347Z" transform="translate(-64.467 -328.104)" fill="#404040" stroke="#fff" stroke-width="1" opacity="0.56"/>
        <path id="Path_15040" data-name="Path 15040" d="M119.228,356.39c2.038-1.771,3.909-.389,5.648.482,2.483,1.242,4.81,2.794,7.217,4.189.693.4,1.433.721,2.152,1.078a6.423,6.423,0,0,1,.8,1.767c.132,1.073-.119,2.2.074,3.256a4.207,4.207,0,0,1-1.334,3.754c-1.895,2.945-1.169,5.9-.018,8.848-.978.611-1.938,1.255-2.938,1.829-3.449,1.98-6.182,5.437-10.7,5.225-.5-.968-1.057-1.911-1.46-2.916a1.882,1.882,0,0,1-.013-1.514c1.677-2.294,1.69-2.633-.286-4.821l-1.784-3.088a35.856,35.856,0,0,1,2.245-4.648,11.973,11.973,0,0,0,1.917-6.085C120.956,361.011,119.8,358.817,119.228,356.39Z" transform="translate(-60.776 -264.755)" fill="#404040" stroke="#fff" stroke-width="1" opacity="0.56"/>
        <path id="Path_15041" data-name="Path 15041" d="M113.421,454.471c1.023,0,2.052.061,3.068-.025,2.307-.195,4.061.171,4.883,2.837.566,1.838,2.554,2,3.786.334.978-1.324,2.1-1.5,3.155-.76a5.194,5.194,0,0,1,1.4,2.6,15.883,15.883,0,0,1,.251,2.386c.249,1.509.581,2.943,2.7,2.54.3-.057.7.428,1.059.662.076,1.823-.163,3.308-2.466,3.688-.593.1-1.259,1.29-1.436,2.081-.544,2.429.393,4.573,1.7,6.577a21.9,21.9,0,0,1-4.7.634c-4.772-.37-9.524-.985-14.285-1.5-2.022.116-1.413-1.489-1.176-2.26a39.25,39.25,0,0,1,2.584-6.531c.984-1.9,1.385-3.609.444-5.65-.376-.815-.039-1.93-.216-2.873a8.255,8.255,0,0,0-.91-2.492C112.791,455.866,112.408,455.156,113.421,454.471Z" transform="translate(-58.512 -305.501)" fill="#404040" stroke="#fff" stroke-width="1" opacity="0.56"/>
        <path id="Path_15042" data-name="Path 15042" d="M39.511,341.949l4.887,3.57-1.878.755V364.9c-3.092,0-6-.043-8.9.039-.531.015-1.048.535-1.571.822l-.458,1.355a14.831,14.831,0,0,1-1.367-1.65,5.405,5.405,0,0,0-4.824-2.749c-.2-.131-.577-.339-.56-.38,1.281-3.071.079-5.835-1.239-8.814h7.086v-3.149l1.8-.926.718-5.313h5.621Z" transform="translate(-22.456 -259.158)" fill="#404040" stroke="#fff" stroke-width="1" opacity="0.56"/>
        <path id="Path_15043" data-name="Path 15043" d="M102.992,387.52l1.784,3.088c-1.035,2.638-1.936,5.342-3.174,7.882-.487,1-1.725,2.3-2.624,2.307-2.859.01-4.064,1.573-4.811,3.926l-4.88.934c-.884-2.987-2.857-4.494-5.687-4.319v-4.55c1.266-1.765,1.884-3.632.9-5.751.232-.454.451-.916.7-1.362,1.59-2.864,2.454-2.949,5.533-1.825,2.082.76,4.341,1.879,6.7.52a1.592,1.592,0,0,1,1.25-.189C100.3,388.989,101.639,388.273,102.992,387.52Z" transform="translate(-47.182 -277.797)" fill="#404040" stroke="#fff" stroke-width="1" opacity="0.56"/>
        <path id="Path_15044" data-name="Path 15044" d="M176.409,438.39a4.584,4.584,0,0,0,1.189.926,11.105,11.105,0,0,1,6.34,5.731c-.519,4.185-.462,8.263,2.187,11.862-2.36,1.2-4.644,2.734-7.513,1.762l-2.058-.562-1.862-3.364-1.362.432-3.965-3.12c-1.079-2.566-3.081-4.82-2.66-7.893,1.542-.7,2.383-1.757,1.783-3.539l.875-1.771.467-.906c.421.166.955.223,1.24.52a25.379,25.379,0,0,1,1.641,1.988Z" transform="translate(-81.407 -298.72)" fill="#404040" stroke="#fff" stroke-width="1" opacity="0.56"/>
        <path id="Path_15045" data-name="Path 15045" d="M183.557,296.306a13.567,13.567,0,0,0-.158,2.348,17.059,17.059,0,0,0,.6,2.481l-3.984.439c-2.129.164-4.276.218-6.382.541a11.916,11.916,0,0,0-2.863,1.251c-1.461-1.287-2.831-2.009-4.6-.249-.407.4-1.891-.069-2.778-.4-1.25-.473-2.4-1.527-3.519.213-.162.25-1,.423-1.12.285-1.068-1.267-3.56-.589-3.887-2.961-.079-.574-1.086-1.019-1.766-1.608l1.327-.294c-.033-.243.012-.5-.1-.625-1.952-2.176-1.907-2.029.821-2.96.707-.241,2.664.732,2.272-1.441.288-.036.612-.178.859-.094,1.971.673,3.454-.6,5.168-1.03,1.832-.46,4.084.265,6.028.872,2.1.656,4.021,2.148,6.337,1a17.043,17.043,0,0,0,2.443-1.784l2.657,1.366C181.258,295.078,181.918,296.18,183.557,296.306Z" transform="translate(-75.772 -238.595)" fill="#404040" stroke="#fff" stroke-width="1" opacity="0.56"/>
        <path id="Path_15046" data-name="Path 15046" d="M112.966,492.019c4.76.52,9.513,1.134,14.285,1.5a21.91,21.91,0,0,0,4.7-.634l3.517.444a16.316,16.316,0,0,1-3.586.886c-2.67.057-3.14.665-3.548,3.2a40.459,40.459,0,0,1-2.151,6.5,6.582,6.582,0,0,0-.4,1.556c-.032,2.993,0,5.988,0,8.982-1.907,2.167-3.841.615-5.767.043-2.816-.635-2.355-3.275-2.456-4.968a30.73,30.73,0,0,0-4.848-14.576C112.069,493.928,111.706,492.9,112.966,492.019Z" transform="translate(-58.938 -321.003)" fill="#404040" stroke="#fff" stroke-width="1" opacity="0.56"/>
        <path id="Path_15047" data-name="Path 15047" d="M178.67,471.964c2.869.972,5.153-.558,7.513-1.763-.561,2.985,1.527,5.931-.016,8.984-1.116,2.207-3.317,2.873-5.009,4.266a43.045,43.045,0,0,0-5.731,6.23c-.3.369.091,1.485.4,2.142,1.707,3.613,1.33,4.977-2.234,6.656a4.406,4.406,0,0,0-2.826,3.908c-1.163.561-2.041-.088-1.4-1.023,1.244-1.826.494-3.442.206-5.181a22.393,22.393,0,0,1-.141-2.581c1.152-2.4,2.447-4.748,3.409-7.225.747-1.925-.221-3.471-1.983-4.368-1.3-.661-2.707-1.1-4.067-1.641l5.729-3.526c.939,1.02,1.922,2,2.8,3.075a10.2,10.2,0,0,1,.965,1.8c.593-.75,1.721-1.546,1.66-2.238-.107-1.216-.942-2.367-1.473-3.546l-.54-3.844Z" transform="translate(-81.465 -312.012)" fill="#404040" stroke="#fff" stroke-width="1" opacity="0.56"/>
        <path id="Path_15048" data-name="Path 15048" d="M153.48,257.824c2.207-.676,3.74.12,5.467,1.665,1.416,1.266,3.624,1.737,5.556,2.3,1.64.481,3.035,1.031,3.537,2.878l-2.228,2.006-6.948,2.977.066-.065-3.135-1.137-.16-.757c-1.032.884-2.011,1.842-3.118,2.62a8.393,8.393,0,0,1-2.115.766l-.037-.152c.514-1.29,2.316-2.329.772-4.021-1.051-1.152-2.219-1.885-3.829-1.141l-7.068.449-.432-.892v-1.768l2.207-3.973c1.648-2.37,3.772-.918,5.591-.5C149.869,259.6,151.786,259.493,153.48,257.824Z" transform="translate(-70.347 -224.39)" fill="#404040" stroke="#fff" stroke-width="1" opacity="0.56"/>
        <path id="Path_15049" data-name="Path 15049" d="M32.826,337.609l-1.8.926-.683,2.518H24.418a6.771,6.771,0,0,1,.5-1.633c1.98-3.154,3.866-6.383,6.083-9.365,1-1.345,2.792-2.068,4.032-3.273,1.182-1.149,2.611-1.985,2.464-4.326-.089-1.424,1.708-3.081,2.879-4.441a43.273,43.273,0,0,1,4.394-4.258c.416-.363,1.481-.671,1.708-.449,1.531,1.491,3.365,1.491,5.263,1.375.173,1.078.32,2.16.526,3.232.3,1.552-.088,2.42-1.891,2.282a1.905,1.905,0,0,0-1.546.608c-1.464,2.826-4.131,3.713-6.871,4.581a18.882,18.882,0,0,0-2.566,1.246l-.7,5.352H32.826Z" transform="translate(-22.793 -247.323)" fill="#404040" stroke="#fff" stroke-width="1" opacity="0.56"/>
        <path id="Path_15050" data-name="Path 15050" d="M70.154,276.253a3.544,3.544,0,0,1,.036-.876c1.606-5.363.578-5.237-4.3-8.484.836-.3,1.506-.811,1.975-.667,2.165.667,2.583-.269,2.168-2.151,3.158,1.673,4.031,1.383,6.372-1.819.282-.386,1.1-.377,1.672-.552,1.111,1.82,2.566,3.007,4.86,2.661,1.5.9,3.53,1.511,2.2,3.981-2.308,1.868-2.308,1.868-.44,3.962l.014,2.239c-.768,2.121-1.968,2.816-3.941,2.126-1.41-.493-2.516-.741-3.3,1.041-.173.395-1.589.243-2.432.342Z" transform="translate(-39.886 -226.088)" fill="#404040" stroke="#fff" stroke-width="1" opacity="0.56"/>
        <path id="Path_15051" data-name="Path 15051" d="M125.092,209.679c-.775,3.028-3.18,4.681-5.449,6.436-.614.475-1.494.694-1.948,1.27-1.584,2.009-1.057,3.206,1.975,4.843.016.136.095.338.033.4a17.947,17.947,0,0,0-4.236,5.86c-.448,1.089-2.586,1.481-3.761,2.088l-3.386-6.364a4.685,4.685,0,0,0,2.109-5.66,4.834,4.834,0,0,1,.491-3.012,9.788,9.788,0,0,1,2.064-2.751,35.888,35.888,0,0,1,5.614-5c1.245-.785,3.13-.552,4.727-.777Z" transform="translate(-57.369 -203.548)" fill="#404040" stroke="#fff" stroke-width="1" opacity="0.56"/>
        <path id="Path_15052" data-name="Path 15052" d="M203.52,420.458c-1.177-2.958-1.66-6.074,0-8.853a7.239,7.239,0,0,1,4.188-3.04c3.342-.75,4.341-3.708,6.31-5.739.109-.113-.3-1.035-.665-1.237a6.023,6.023,0,0,0-2.095-.59c-3.651-.5-5.731-2.6-6.416-6.176.65.3,1.316.563,1.946.9,1.294.685,2.321,1.637,4.149,1.023,3.085-1.036,6.335-1.584,10-2.452a24.575,24.575,0,0,1-1.192,4.911,104.4,104.4,0,0,1-5.617,10.7c-.925,1.505-2.746,2.433-4.05,3.734C207.846,415.868,205.7,418.181,203.52,420.458Z" transform="translate(-96.161 -280.728)" fill="#404040" stroke="#fff" stroke-width="1" opacity="0.56"/>
        <path id="Path_15053" data-name="Path 15053" d="M64.072,285.889l4.885,1.8,3.239.785c-2.1,2.29-6.865,2.407-5.892,6.839-2.083,4.085-6.427,3.589-10,4.686l-2.814-2.607a24.049,24.049,0,0,1,1.216-4.46c1.066-2.2.727-3.611-1.641-4.4l-1.926-2.054c2.073-2.634,4.407-.688,6.483-.906A39.635,39.635,0,0,1,64.072,285.889Z" transform="translate(-33.804 -235.724)" fill="#404040" stroke="#fff" stroke-width="1" opacity="0.56"/>
        <path id="Path_15054" data-name="Path 15054" d="M218.931,476.731c2.076,3.409,2.062,5.78.671,5.987-.5,2.082-.865,3.926-1.386,5.724-.972,3.356-2.119,6.661-3.034,10.031-.961,3.537-4.557,4.725-6.463,3.142-1.148-.952-1.944-4.973-1.016-6.369,1.5-2.253,2.566-4.4,1.882-7.384-.615-2.684.58-3.209,3.064-4.458A11.568,11.568,0,0,0,218.931,476.731Z" transform="translate(-98.159 -314.703)" fill="#404040" stroke="#fff" stroke-width="1" opacity="0.56"/>
        <path id="Path_15055" data-name="Path 15055" d="M378.895,384.353c1.354-1.486,1.266-3.144.635-4.9-1.146-3.192-2.256-6.4-3.384-9.6a3.081,3.081,0,0,1,1.476-3.917l2.178-1.44,2.647,5.636a2.631,2.631,0,0,1,.98-.424c1.318-.06,3.275-.567,3.842.09,1.682,1.944,3.764,3.967,3.1,7.042-4.466-.065-4.465-.065-4.337,4.229,0,.064-.059.13-.091.2a29.962,29.962,0,0,1-3.282-1.4c-.45-.253-.658-.936-1.163-1.709a7.463,7.463,0,0,0-.8,1.647c-.318,1.544-.567,3.107-.742,4.673a2.907,2.907,0,0,0,.258,1.816c1.541,2.238,3.2,4.4,4.81,6.586.172.232.345.463.517.695l-3.128-.842a15.731,15.731,0,0,0-2-2.659C377.782,387.764,377.741,387.812,378.895,384.353Z" transform="translate(-167.649 -268.451)" fill="#404040" stroke="#fff" stroke-width="1" opacity="0.56"/>
        <path id="Path_15056" data-name="Path 15056" d="M430.591,419.825c-1.342,2.878.81,4.665,2.352,6.849-1.977-.242-3.155.137-2.772,2.293.072.4-.349.992-.689,1.357a5.424,5.424,0,0,0-1.66,4.494l-3.266,1.069.192-.385c-1.062-.357-2.168-1.109-3.179-1-2.979.327-4.269-.356-5.109-3.153a7.014,7.014,0,0,0-1.065-2.179,2.951,2.951,0,0,1,.179-4.1c.9,1.682,2.259,1.889,3.9,1.255a8.591,8.591,0,0,1,2.862-1.006c2.522.036,3.695-1.377,4.407-3.487C427.388,419.93,428.56,419.061,430.591,419.825Z" transform="translate(-183.611 -291.137)" fill="#404040" stroke="#fff" stroke-width="1" opacity="0.56"/>
        <path id="Path_15057" data-name="Path 15057" d="M195.894,307.942l3.984-.439c1.519,1.708,3.911,2.881,3.242,5.89-.137.616.486,1.523.966,2.131,1.638,2.073,3.37,4.073,5.066,6.1l-2.319,1.3c-3.59,1.664-5.993-.376-8.618-2.451-1.655-1.309-3.865-1.914-5.827-2.834l-.892-2.2a7.339,7.339,0,0,0,4.217-6.656A4.679,4.679,0,0,1,195.894,307.942Z" transform="translate(-91.647 -244.962)" fill="#404040" stroke="#fff" stroke-width="1" opacity="0.56"/>
        <path id="Path_15058" data-name="Path 15058" d="M135.428,208.37l-1.766-2.67c1.565-.325,3.387-.257,4.631-1.072,1.658-1.087,2.831-1.088,4.178.18,1.242,3.633,2.306,7.343,3.808,10.865.678,1.592-.31,2.175-.951,2.971a6.581,6.581,0,0,1-2.012,1.171,13.991,13.991,0,0,0-3.185.464,5.623,5.623,0,0,1-5.137-.683c-1.931-1.1-2.141-3.08-.433-4.457a9.167,9.167,0,0,0,1.55-1.555,16.856,16.856,0,0,0,1.119-1.936l.715.469Z" transform="translate(-67.706 -202.239)" fill="#404040" stroke="#fff" stroke-width="1" opacity="0.56"/>
        <path id="Path_15059" data-name="Path 15059" d="M97.085,263.4c1.335-2.47-.7-3.078-2.2-3.981q.212-1.534.423-3.069l1.346-3.562a38.741,38.741,0,0,1,3.43-2.909,1.889,1.889,0,0,1,1.821.145c1.61,1.694,3.041.549,4.461-.056l1.738,1.5q.43,2.661.862,5.32c-.209.057-.424.1-.626.173-3.67,1.367-3.67,1.368-1.117,4.238-.953,2.425-3.3,2.461-5.3,3.1Z" transform="translate(-51.835 -221.147)" fill="#404040" stroke="#fff" stroke-width="1" opacity="0.56"/>
        <path id="Path_15060" data-name="Path 15060" d="M126.454,203.69c-1.347-1.268-2.52-1.267-4.178-.18-1.244.815-3.066.747-4.631,1.072-1.6.225-3.482-.008-4.727.777a35.886,35.886,0,0,0-5.614,5,9.787,9.787,0,0,0-2.064,2.751,4.834,4.834,0,0,0-.492,3.012,4.685,4.685,0,0,1-2.109,5.66,17.425,17.425,0,0,0-2.768.766c-2.1.964-3.737.526-4.721-1.41-1.464-2.879-.233-5.5,2.849-6.42a15.224,15.224,0,0,0,7.469-5.343c2.168-2.62,4.155-5.834,8.272-6.217,1.718-.16,3.319-1.485,5.042-1.686,3.309-.385,6.713-.821,9.878.869Z" transform="translate(-51.689 -201.122)" fill="#404040" stroke="#fff" stroke-width="1" opacity="0.56"/>
        <path id="Path_15061" data-name="Path 15061" d="M101.573,407.126c.748-2.353,1.952-3.917,4.811-3.927.9,0,2.138-1.307,2.624-2.307,1.238-2.54,2.139-5.244,3.174-7.882,1.975,2.189,1.963,2.527.286,4.821a1.883,1.883,0,0,0,.013,1.514c.4,1.005.964,1.948,1.46,2.916-1.964,2.218-2.011,4.522-.3,6.9.675.938,1.365,1.865,2.049,2.8a2.919,2.919,0,0,1-3.97.859c-1.761-.141-3.52-.3-5.283-.413-.792-.051-1.59-.009-2-.009Z" transform="translate(-54.589 -280.201)" fill="#404040" stroke="#fff" stroke-width="1" opacity="0.56"/>
        <path id="Path_15062" data-name="Path 15062" d="M207.721,374c1.645-1.624,3.478-.617,5.149-.2a2.741,2.741,0,0,0,3.422-1.171c1.922-2.449,4.917-2.3,7.75-2.166l1.8,3.537c-2.845,3.962-7.476,5-11.508,7.007a13.988,13.988,0,0,1-3.826,1.233c-.446.076-1.222-.583-1.524-1.1C207.681,378.939,206.945,376.589,207.721,374Z" transform="translate(-98.203 -270.883)" fill="#404040" stroke="#fff" stroke-width="1" opacity="0.56"/>
        <path id="Path_15063" data-name="Path 15063" d="M118.234,256.488q-.43-2.66-.861-5.321c.534-.165,1.067-.337,1.6-.495,1.689-.5,3.153-1.654,5.23-.6.835.423,2.441-.68,3.7-1.087l3.987,3.1.881,3.957-2.207,3.973-6.593-.437c-.907-.521-1.8-1.063-2.724-1.558C120.254,257.485,119.24,257,118.234,256.488Z" transform="translate(-61.101 -220.845)" fill="#404040" stroke="#fff" stroke-width="1" opacity="0.56"/>
        <path id="Path_15064" data-name="Path 15064" d="M514.529,444.077c5.389.862,8.994,4.167,12.718,7.586l-2.661.8,7.416,7.5c-2.341.39-6.155-1.389-7.3-3.233A8.51,8.51,0,0,0,522.6,454.3c-2.2-1.586-3.374-1.339-4.59,1.1-.911,1.827-2.078,1.353-3.478.737Z" transform="translate(-224.772 -301.246)" fill="#404040" stroke="#fff" stroke-width="1" opacity="0.56"/>
        <path id="Path_15065" data-name="Path 15065" d="M372.1,415.69c3.289-.565,5.328,1.508,6.688,3.518,1.625,2.4,3.9,3.716,6.015,5.369.374.292.882.593,1.008.992.9,2.854,2.862,4.878,4.939,6.9.59.574.616,1.894.611,2.871a15.85,15.85,0,0,1-.6,3.036c-1.942.418-2.894-1.2-4.151-2.154-2.878-2.191-3.666-5.783-5.677-8.549-2.322-3.193-4.818-6.258-7.2-9.4C373.129,417.482,372.665,416.6,372.1,415.69Z" transform="translate(-166.075 -289.508)" fill="#404040" stroke="#fff" stroke-width="1" opacity="0.56"/>
        <path id="Path_15066" data-name="Path 15066" d="M501.064,452.371l-5.475-1.7c2.2-1.883,1.9-3.992-.839-5.388a51.987,51.987,0,0,0-4.87-2.323,12.69,12.69,0,0,0-3.155-.278l-.894-2.18,2.206-.922a11.856,11.856,0,0,1-2.771-.416,9.985,9.985,0,0,1-2.091-1.566c.814-1.7,1.8-1.837,5.049-.7a35.175,35.175,0,0,0,1.6,4.139c.152.292,1.265.363,1.75.136a6.328,6.328,0,0,0,2.491-1.778c2.062-2.906,3.6.049,5.352.359,1.907.337,1.661,1.819,1.653,3.189C501.053,446.216,501.064,449.487,501.064,452.371Z" transform="translate(-211.852 -297.985)" fill="#404040" stroke="#fff" stroke-width="1" opacity="0.56"/>
        <path id="Path_15067" data-name="Path 15067" d="M115.116,424.852a2.918,2.918,0,0,0,3.97-.859c.73-2.436,2.761-1.6,4.4-1.756a42.742,42.742,0,0,1-4.8,13.787c-1.412,2.71-4,3.163-6.671,3.42l-2.2-3.085c1.084-1.55,1.814-3.56,4.428-2.947.331.078,1.418-1.151,1.306-1.418-.858-2.047.2-4.785-2.193-6.261Z" transform="translate(-57.985 -292.237)" fill="#404040" stroke="#fff" stroke-width="1" opacity="0.56"/>
        <path id="Path_15068" data-name="Path 15068" d="M58.572,407.672c-.038.217-.041.609-.119.624q-4.008.793-8.034,1.5c-.2.035-.462-.243-.695-.375a8.308,8.308,0,0,0-.077-1.987c-.319-1.132-.807-2.215-1.225-3.319,1.717-1.691.729-3.8.89-5.736l4.4-.878c.936,2.227,3.085,1.782,4.841,2.2.024.855.069,1.71.068,2.565C58.617,404.069,58.589,405.871,58.572,407.672Z" transform="translate(-32.686 -282.05)" fill="#404040" stroke="#fff" stroke-width="1" opacity="0.56"/>
        <path id="Path_15069" data-name="Path 15069" d="M461.736,306.816c2.138-.46,3.752-4.08,6.881-1.655l1.527-4.034c.518.148,1.513.545,1.577.43a5.965,5.965,0,0,0,1.058-2.823c-.04-.809-.982-1.54-1.364-2.379a3.461,3.461,0,0,1-.284-1.9c.038-.232.867-.334,1.471-.542l-.923-1.168c.423-.022.775-.1.8-.033.952,2.3,3.557,3.891,2.871,6.935-.151.667.436,1.486.628,2.249.363,1.446.754,2.893.974,4.363.049.331-.554.76-.976,1.3-.219-.99-.388-1.758-.681-3.085l-1.175,2.666-2.906-.922-.737,3.084c-2.691-4.825-5.2-1.008-8.474-.651,3.028,1,2.656,2.718,2.015,4.671-.352-.16-.878-.228-.991-.481-.437-.981-.716-1.814-2.126-1.966-1.055-.115-.9-.92.008-1.754C461.371,308.692,461.406,307.8,461.736,306.816Z" transform="translate(-202.369 -238.858)" fill="#404040" stroke="#fff" stroke-width="1" opacity="0.56"/>
        <path id="Path_15070" data-name="Path 15070" d="M388.511,357.5a18.2,18.2,0,0,1,4.042-1.4c.895-.1,1.928.591,2.824,1.071a24.755,24.755,0,0,1,2.422,1.67c-4.53,3.26-3.7,5.441.012,8.473,3.186,2.6,4.479,5.889,5.147,9.6a3.722,3.722,0,0,1-1.078,2.917,73.826,73.826,0,0,1-5.958,4.379c-.128-1.238-.257-2.5-.387-3.761,4.7-1.363,5.734-3.416,3.545-7.065a8.492,8.492,0,0,0-.513-2.814,38.081,38.081,0,0,0-3.023-4.043Q392.034,362.008,388.511,357.5Z" transform="translate(-172.839 -264.986)" fill="#404040" stroke="#fff" stroke-width="1" opacity="0.56"/>
        <path id="Path_15071" data-name="Path 15071" d="M138.083,271.955l7.068-.45,3.058,5.162.037.152,1.252.705-1.679,2.367c-1.108-.152-2.211-.345-3.323-.446-1.978-.179-3.961-.3-5.942-.446l-3.979-3.525Z" transform="translate(-68.189 -230.127)" fill="#404040" stroke="#fff" stroke-width="1" opacity="0.56"/>
        <path id="Path_15072" data-name="Path 15072" d="M237.5,365.982l-1.8-3.537c1.222-.629,2.5-1.172,3.654-1.9,2.544-1.611,2.781-3.648.745-5.595l2.222-4c1.744,1.112,3.556,2.137,5.19,3.393a2.182,2.182,0,0,1,.476,2.062c-.954,1.667-2.215,3.153-3.3,4.749C242.934,363.735,240.8,365.722,237.5,365.982Z" transform="translate(-109.866 -262.866)" fill="#404040" stroke="#fff" stroke-width="1" opacity="0.56"/>
        <path id="Path_15073" data-name="Path 15073" d="M97.888,280.437q-.007-1.119-.014-2.239l5.3-2.2,5.263.881-.023,1.336-2.44.476A7.241,7.241,0,0,0,106.7,281a13.593,13.593,0,0,0,2.839,2.877c1.921,1.385,4,2.543,5.977,3.861a14.829,14.829,0,0,1,1.826,1.871l-3.661-1.3-.511.431c1.586,1.932.905,3.118-.593,3.881-.212-1.2-.106-2.584-.708-3.5a10.191,10.191,0,0,0-3.016-2.354c-2.319-1.545-5.046-2.555-6.171-5.517-.471-1.239-1.578-1.42-2.861-.816C99.292,280.688,98.538,280.452,97.888,280.437Z" transform="translate(-53.065 -231.979)" fill="#404040" stroke="#fff" stroke-width="1" opacity="0.56"/>
        <path id="Path_15075" data-name="Path 15075" d="M41.271,395.9c-.161,1.933.827,4.045-.89,5.736-1.937.5-2.266-1.6-3.526-2.195-1.155-3.279-2.308-3.592-4.862-1.32l-3.085-4.411,2.237-2.211L35.1,391.5c.86.3,1.789.966,2.564.82a2.143,2.143,0,0,1,2.8,1.587C40.716,394.579,41,395.238,41.271,395.9Z" transform="translate(-24.643 -279.578)" fill="#404040" stroke="#fff" stroke-width="1" opacity="0.56"/>
        <path id="Path_15076" data-name="Path 15076" d="M110.7,427.36c2.4,1.476,1.335,4.213,2.193,6.26.112.267-.975,1.5-1.306,1.418-2.614-.613-3.344,1.4-4.428,2.947-.842-.789-1.718-1.546-2.52-2.375-2.062-2.13-1.193-4.433-.276-6.853h3.078l.433-2.594Z" transform="translate(-55.332 -293.864)" fill="#404040" stroke="#fff" stroke-width="1" opacity="0.56"/>
        <path id="Path_15077" data-name="Path 15077" d="M65.657,407.315c.017-1.8.045-3.6.048-5.4,0-.855-.044-1.71-.068-2.565-.215-2.427,1.151-2.949,3.187-2.63.7.11,1.4.281,2.1.423l1.78,8.412a8.146,8.146,0,0,1-1.711,1.641c-.929.477-2.088.516-3.005,1.009C66.737,408.873,66.113,408.457,65.657,407.315Z" transform="translate(-39.77 -281.693)" fill="#404040" stroke="#fff" stroke-width="1" opacity="0.56"/>
        <path id="Path_15078" data-name="Path 15078" d="M191.826,308.25a4.688,4.688,0,0,0-.181.845,7.338,7.338,0,0,1-4.217,6.656l-5.279,2.2q0-.9,0-1.8a10.034,10.034,0,0,0,.77-1.954c.085-.471-.019-1.294-.32-1.464-1.683-.955-.832-1.8-.013-2.694a11.908,11.908,0,0,1,2.863-1.251C187.55,308.468,189.7,308.414,191.826,308.25Z" transform="translate(-87.579 -245.27)" fill="#404040" stroke="#fff" stroke-width="1" opacity="0.56"/>
        <path id="Path_15079" data-name="Path 15079" d="M431.237,416.688c-2.031-.764-3.2.106-3.847,2.012-.713,2.111-1.885,3.523-4.407,3.488a8.584,8.584,0,0,0-2.862,1.006c-1.643.634-3.006.427-3.9-1.255l1.749.082c1.353-1.07,2.658-2.081,3.935-3.126a6.661,6.661,0,0,0,.977-1.063c.709-.9.718-2.627,2.764-1.9.4.139,1.433-1.357,2.085-2.171,1.91-2.385,1.891-2.4,4.1-.179.31.311.635.608,1.168,1.116Z" transform="translate(-184.258 -288.001)" fill="#404040" stroke="#fff" stroke-width="1" opacity="0.56"/>
        <path id="Path_15080" data-name="Path 15080" d="M32.113,385.634l-3.957.005-4,.007-1.762-.6.062-.453,2.2-.666,1.595-.337-1.595-.224-3-2.81,2.944-3.293a5.406,5.406,0,0,1,4.824,2.749,14.852,14.852,0,0,0,1.367,1.65Z" transform="translate(-21.654 -273.713)" fill="#404040" stroke="#fff" stroke-width="1" opacity="0.56"/>
        <path id="Path_15081" data-name="Path 15081" d="M400.916,385.49c2.189,3.648,1.16,5.7-3.545,7.065l-1.817.879-2.586-3.524c.032-.066.093-.132.091-.2-.128-4.293-.129-4.293,4.337-4.229Z" transform="translate(-174.676 -277.094)" fill="#404040" stroke="#fff" stroke-width="1" opacity="0.56"/>
        <path id="Path_15082" data-name="Path 15082" d="M105.852,315.9q-1.762,2.878-3.522,5.757a43.392,43.392,0,0,0-2.443-4.777,3.855,3.855,0,0,1-.485-4.056,18.39,18.39,0,0,0,.725-3.979c1.4-2.225,3.316-.77,5.054-.54l-1.694,1.936c2,1.072,1.593,2.244-.021,3.427Z" transform="translate(-53.543 -245.011)" fill="#404040" stroke="#fff" stroke-width="1" opacity="0.56"/>
        <path id="Path_15085" data-name="Path 15085" d="M456.9,430.05c-1.061,2.256-1.791,2.56-4.332,1.49-2.036-.858-3.627-.16-4.508,1.93,1.306,2.99,3.478.566,5.738.928-3.071,1.122-2.787,2.767-1.624,4.892.531.969.3,2.356-.073,3.714l-3.456-5.733-.4,5.633c-1.707.69-1.565-.471-1.558-1.657a15.426,15.426,0,0,0-.333-2.388c-.022-.14-.124-.29-.095-.412a57.769,57.769,0,0,1,1.806-6.978c.421-1.107,1.46-1.767,3.188-1.295S455,430.132,456.9,430.05Z" transform="translate(-196.635 -295.452)" fill="#404040" stroke="#fff" stroke-width="1" opacity="0.56"/>
        <path id="Path_15087" data-name="Path 15087" d="M434.917,294.5l7.5-5.743.481.894c-.438.908-1.434,1.744-.221,2.851.122.111-.36,1.113-.756,1.506a10.986,10.986,0,0,1-2.005,1.239l2.528,2.3L440.2,298.9c-.623-.156-1.259-.273-1.864-.482a3.252,3.252,0,0,1-1.041-.592C438.2,295.481,435.827,295.507,434.917,294.5Z" transform="translate(-191.963 -237.235)" fill="#404040" stroke="#fff" stroke-width="1" opacity="0.56"/>
        <path id="Path_15089" data-name="Path 15089" d="M141.023,284.254c1.981.146,3.964.267,5.942.446,1.112.1,2.216.294,3.323.446-.073.948-.145,1.9-.216,2.824l-2,.664-.464.91-5.715,0-1.327-1.331Z" transform="translate(-70.659 -235.381)" fill="#404040" stroke="#fff" stroke-width="1" opacity="0.56"/>
        <path id="Path_15090" data-name="Path 15090" d="M198.465,384.074c-2.162-2.9-4.909-4.46-8.638-3.821-1.554.267-1.857-.648-1.822-1.941.059-2.2,1.618-3.457,2.956-4.862.411.4,1.164.787,1.178,1.2.105,3.215,2.828,4.246,4.731,5.991a42.132,42.132,0,0,1,2.948,3.344Z" transform="translate(-90.208 -272.14)" fill="#404040" stroke="#fff" stroke-width="1" opacity="0.56"/>
        <path id="Path_15091" data-name="Path 15091" d="M422.3,460.494l-19.492-3.428c2-2.676,4.137-1.952,5.646-1.05,1.735,1.038,3.211.653,4.854.373.4-.069.888-.253,1.208-.106,2.61,1.2,5.19,2.464,7.779,3.709Z" transform="translate(-178.73 -305.828)" fill="#404040" stroke="#fff" stroke-width="1" opacity="0.56"/>
        <path id="Path_15092" data-name="Path 15092" d="M139.408,293.247l5.715,0c0,.156,0,.313,0,.469-1.074.277-2.166.5-3.211.858a6.727,6.727,0,0,0-1.45,1.092l-1.177-.715c-1.146,2.695,2.18,3.43,2.462,5.618l-2.905-1.167,1.628,3.285c-2.172-.2-3.315-.726-3.158-3.132.056-.859-1.794-1.843-2.775-2.77l1.786-1.782Z" transform="translate(-68.174 -239.087)" fill="#404040" stroke="#fff" stroke-width="1" opacity="0.56"/>
        <path id="Path_15094" data-name="Path 15094" d="M449.8,373.987c-1.041,2.886-1.041,2.886.375,6.55,1.961-.708,3.479-.449,3.659,2.281-1.385-1.184-2.774-1.921-4.547-1.142a1.463,1.463,0,0,1-1.32-.409,14.7,14.7,0,0,1-2.049-3.244,9.239,9.239,0,0,1-.342-2.951c-.013-.25.367-.532.336-.769-.284-2.155.361-3.376,2.487-2.909Z" transform="translate(-196.357 -271.252)" fill="#404040" stroke="#fff" stroke-width="1" opacity="0.56"/>
        <path id="Path_15095" data-name="Path 15095" d="M346.157,353.24c-.859-2.36-1.72-4.721-2.762-7.582a7.94,7.94,0,0,1,2.081.345c1.526.81,2.992,1.731,4.762,2.774l-.87,1.734c2.284,1.146,3.09,2.928,2.031,4.472C350.4,352.155,348.43,352.234,346.157,353.24Z" transform="translate(-154.246 -260.686)" fill="#404040" stroke="#fff" stroke-width="1" opacity="0.56"/>
        <path id="Path_15096" data-name="Path 15096" d="M136.687,281.783l-.457,3.956-2.643.454-2.223.008-1.32-1.763c1.306-1.27,1.954-2.672.891-4.42q.006-.663.012-1.325l1.76-.436Z" transform="translate(-66.322 -232.91)" fill="#404040" stroke="#fff" stroke-width="1" opacity="0.56"/>
        <path id="Path_15097" data-name="Path 15097" d="M443.905,305.065l2.246-1.364a9.216,9.216,0,0,1,4.876,4.217c.663,1.245.358,1.827-.715,2.364-.577.289-1.162.564-1.726.875-.992.547-1.539.116-1.981-.785C445.732,308.589,444.808,306.832,443.905,305.065Z" transform="translate(-195.667 -243.396)" fill="#404040" stroke="#fff" stroke-width="1" opacity="0.56"/>
        <path id="Path_15098" data-name="Path 15098" d="M386.972,412.519l3.128.842c.609.541,1.5.969,1.773,1.646a47.371,47.371,0,0,1,1.738,5.56c.1.364-.2.834-.308,1.255a5.7,5.7,0,0,1-1.027-.306C388.611,419.644,387.441,416.287,386.972,412.519Z" transform="translate(-172.205 -288.24)" fill="#404040" stroke="#fff" stroke-width="1" opacity="0.56"/>
        <path id="Path_15099" data-name="Path 15099" d="M52.635,290.952c2.368.789,2.707,2.2,1.641,4.4a24.048,24.048,0,0,0-1.216,4.46l-.734,1.266L51,300.616c-.311-1.215-.55-2.155-.8-3.094-.018-.067-.122-.143-.106-.184Q51.36,294.142,52.635,290.952Z" transform="translate(-33.377 -238.142)" fill="#404040" stroke="#fff" stroke-width="1" opacity="0.56"/>
        <path id="Path_15100" data-name="Path 15100" d="M139.271,250.31l-3.987-3.1v-2.182c3.036-.552,6-.738,8.4,1.743C143.06,249,140.859,249.274,139.271,250.31Z" transform="translate(-68.482 -219.073)" fill="#404040" stroke="#fff" stroke-width="1" opacity="0.56"/>
        <path id="Path_15101" data-name="Path 15101" d="M82.048,393.128c.982,2.119.364,3.986-.9,5.751-.141,1.152-.241,2.311-.441,3.453a15.544,15.544,0,0,1-.71,2.071l-1.012-1.979-1.337-7.529,2.649-2.643Z" transform="translate(-44.729 -279.888)" fill="#404040" stroke="#fff" stroke-width="1" opacity="0.56"/>
        <path id="Path_15102" data-name="Path 15102" d="M455.57,406.633c-.329-2.262.12-2.631,2.2-2.587a2.422,2.422,0,0,0,2.794-2.263c.028-.353.25-.69.859-.983l2.029,6.364-.608.173-1.345-.782a10.62,10.62,0,0,1,.315,1.391c.055.57.013,1.149.013,1.708-1.74-.567-3.114-1.388-3.344-3.424-.049-.43-.917-1.186-1.036-1.121A12.288,12.288,0,0,0,455.57,406.633Z" transform="translate(-200.434 -283.41)" fill="#404040" stroke="#fff" stroke-width="1" opacity="0.56"/>
        <path id="Path_15103" data-name="Path 15103" d="M196.164,291.065l-2.657-1.366c.091-2.457-2.1-2.854-3.54-3.931,4.075,1.021,8.347,1.447,11.929,3.958l-1.78,1.755Z" transform="translate(-91.017 -236.005)" fill="#404040" stroke="#fff" stroke-width="1" opacity="0.56"/>
        <path id="Path_15104" data-name="Path 15104" d="M143.69,244.538c-2.409-2.48-5.368-2.295-8.4-1.742q.045-1.172.089-2.345a5.848,5.848,0,0,1,1.965.141c1.484.663,2.163.179,2.347-1.326l4.422.873,1.329,2.648Z" transform="translate(-68.483 -216.841)" fill="#404040" stroke="#fff" stroke-width="1" opacity="0.56"/>
        <path id="Path_15105" data-name="Path 15105" d="M40.87,405.016c1.26.6,1.588,2.69,3.526,2.195.418,1.1.907,2.187,1.225,3.319a8.308,8.308,0,0,1,.077,1.987c-3.24-.044-5.064-2.354-7.047-4.41Z" transform="translate(-28.659 -285.148)" fill="#404040" stroke="#fff" stroke-width="1" opacity="0.56"/>
        <path id="Path_15106" data-name="Path 15106" d="M240.776,349.018l-2.222,4c-2.432-.554-5.113-.574-6.611-3.115.133-.2.369-.589.385-.581,2.67,1.493,4.494.082,6.213-1.764.432-.463.931-.862,1.4-1.291.163.584.32,1.169.493,1.75C240.533,348.354,240.661,348.685,240.776,349.018Z" transform="translate(-108.316 -260.937)" fill="#404040" stroke="#fff" stroke-width="1" opacity="0.56"/>
        <path id="Path_15107" data-name="Path 15107" d="M468.168,267.917l-2.4.394c-2.316-1.38-2.749-4.7-4.526-7.083-1.754-2.354-3.82-4.474-5.479-6.99l11.224,9.586a19.328,19.328,0,0,0-2.269-1.177,5.178,5.178,0,0,0-1.506-.082c.155.5.16,1.154.49,1.463C465.189,265.42,466.772,266.717,468.168,267.917Z" transform="translate(-200.553 -223.011)" fill="#404040" stroke="#fff" stroke-width="1" opacity="0.56"/>
        <path id="Path_15109" data-name="Path 15109" d="M479.465,286.564c-2.821-.932-2.821-.932-3.582,1.365-1.137-1.221-2.476-2.16-.867-4.1.36-.434-.623-1.985-1.072-3.264,2.324,1.474,4.19,3.645,7.088,2.717l.527,1.339Z" transform="translate(-208.046 -233.861)" fill="#404040" stroke="#fff" stroke-width="1" opacity="0.56"/>
        <path id="Path_15111" data-name="Path 15111" d="M39.01,403.062l-2.219,3.09c-1.481-1.109-2.784-2.326-2.643-4.41C36.7,399.47,37.856,399.783,39.01,403.062Z" transform="translate(-26.798 -283.195)" fill="#404040" stroke="#fff" stroke-width="1" opacity="0.56"/>
        <path id="Path_15112" data-name="Path 15112" d="M128.114,281.228c1.063,1.748.416,3.15-.891,4.42l-2.623-.862a8.676,8.676,0,0,1-.8-1.273,19.807,19.807,0,0,1-.6-1.937,20.129,20.129,0,0,1,2.163-.36C126.276,281.158,127.2,281.219,128.114,281.228Z" transform="translate(-63.502 -234.119)" fill="#404040" stroke="#fff" stroke-width="1" opacity="0.56"/>
        <path id="Path_15113" data-name="Path 15113" d="M125.3,279.39c-.917-.009-1.838-.07-2.751-.012a20.1,20.1,0,0,0-2.163.36,19.812,19.812,0,0,0,.6,1.937,8.689,8.689,0,0,0,.8,1.273c-1.263-.551-2.644-.831-3.193-2.476-.156-.468-1.388-.575-2.226-.885l.554-.629,3.55-2.226,4.841,1.333Z" transform="translate(-60.684 -232.281)" fill="#404040" stroke="#fff" stroke-width="1" opacity="0.56"/>
        <path id="Path_15114" data-name="Path 15114" d="M76.41,396.747l1.337,7.529-.392,1.835-.928-.513-1.78-8.412Z" transform="translate(-43.493 -281.741)" fill="#404040" stroke="#fff" stroke-width="1" opacity="0.56"/>
        <path id="Path_15115" data-name="Path 15115" d="M145.984,238.348l-4.422-.873-1.728-1.551,0-.648c1.216-.126,2.431-.325,3.65-.353a16.321,16.321,0,0,1,2.5.31Q145.985,236.79,145.984,238.348Z" transform="translate(-70.357 -215.051)" fill="#404040" stroke="#fff" stroke-width="1" opacity="0.56"/>
        <path id="Path_15116" data-name="Path 15116" d="M91.905,260.368q-.212,1.535-.423,3.069c-2.293.346-3.749-.842-4.86-2.661l1.761-1.322Z" transform="translate(-48.428 -225.161)" fill="#404040" stroke="#fff" stroke-width="1" opacity="0.56"/>
        <path id="Path_15117" data-name="Path 15117" d="M324.155,402.474c3.5,4.517,3.544,5.217-.128,6.442l-.538-6.41Z" transform="translate(-146.043 -284.101)" fill="#404040" stroke="#fff" stroke-width="1" opacity="0.56"/>
        <path id="Path_15119" data-name="Path 15119" d="M93.139,257.842l-3.521-.914a17.938,17.938,0,0,1,2.482-2.551c.61-.43,1.541-2.081,2.386-.1Z" transform="translate(-49.663 -222.635)" fill="#404040" stroke="#fff" stroke-width="1" opacity="0.56"/>
        <path id="Path_15120" data-name="Path 15120" d="M105.12,240.043l.2,1.906-1.774,3.283c-.136-.1-1.047-.43-1.215-.984a3.534,3.534,0,0,1,.155-2.679C102.972,240.855,104.11,240.588,105.12,240.043Z" transform="translate(-54.824 -217.162)" fill="#404040" stroke="#fff" stroke-width="1" opacity="0.56"/>
        <path id="Path_15121" data-name="Path 15121" d="M180.963,321.694q0,.9,0,1.8,0,2.643,0,5.285l-.9.456-.2-.01-.2.027-.906-1.824c.306-1.67.554-3.356.969-5C179.81,322.1,180.535,321.935,180.963,321.694Z" transform="translate(-86.398 -250.811)" fill="#404040" stroke="#fff" stroke-width="1" opacity="0.56"/>
        <path id="Path_15122" data-name="Path 15122" d="M443.555,354.558c-2.545-1.554-3.165-3,.38-5.638C443.812,350.74,443.689,352.559,443.555,354.558Z" transform="translate(-194.66 -262.031)" fill="#404040" stroke="#fff" stroke-width="1" opacity="0.56"/>
        <path id="Path_15124" data-name="Path 15124" d="M171.493,278.073l4.954.965c-1.095.4-1.94.671-2.749,1.023-.785.34-1.533.766-2.42,1.217l-.823-2.244,1.1-1.023Z" transform="translate(-82.976 -232.808)" fill="#404040" stroke="#fff" stroke-width="1" opacity="0.56"/>
        <path id="Path_15125" data-name="Path 15125" d="M132.289,291.764l2.223-.008.885,2.636-1.786,1.782Q132.95,293.969,132.289,291.764Z" transform="translate(-67.248 -238.473)" fill="#404040" stroke="#fff" stroke-width="1" opacity="0.56"/>
        <path id="Path_15126" data-name="Path 15126" d="M469.6,321.327c-.208-.466-.913-1.27-.785-1.905.343-1.7,1.958-1.1,3.094-1.225.2-.022.483.768.728,1.183a10.854,10.854,0,0,0-1.049.533C471.079,320.237,470.6,320.606,469.6,321.327Z" transform="translate(-205.924 -249.367)" fill="#404040" stroke="#fff" stroke-width="1" opacity="0.56"/>
        <path id="Path_15127" data-name="Path 15127" d="M120.24,276.123l-3.55,2.226-.879-.44q.011-.668.023-1.336l4.4-1.319Z" transform="translate(-60.457 -231.673)" fill="#404040" stroke="#fff" stroke-width="1" opacity="0.56"/>
        <path id="Path_15129" data-name="Path 15129" d="M538.88,453.138l5.724-3.066c.072,1.971-1.777,2.645-3.235,3.445-.676.372-1.724.064-2.6.064Z" transform="translate(-234.761 -303.716)" fill="#404040" stroke="#fff" stroke-width="1" opacity="0.56"/>
        <path id="Path_15130" data-name="Path 15130" d="M25.451,391.514l4-.007-2.237,2.211-2.42-1.4Z" transform="translate(-22.947 -279.581)" fill="#404040" stroke="#fff" stroke-width="1" opacity="0.56"/>
        <path id="Path_15131" data-name="Path 15131" d="M464.647,463.292l-6.066,3.106C460.353,462.88,462.008,462.155,464.647,463.292Z" transform="translate(-201.715 -308.96)" fill="#404040" stroke="#fff" stroke-width="1" opacity="0.56"/>
        <path id="Path_15132" data-name="Path 15132" d="M475.376,429.256l-1.087-.333c-.087.729-.161,1.348-.235,1.967l-.606,0v-5.215l.67.027c-.077.725-.154,1.45-.251,2.369l1.626-1.837.35.19Z" transform="translate(-207.842 -293.663)" fill="#404040" stroke="#fff" stroke-width="1" opacity="0.56"/>
        <path id="Path_15133" data-name="Path 15133" d="M460.624,391.69c2.061-.227,1.75,1.606,2.278,2.552-.366.417-.878.763-1.011,1.22a6.829,6.829,0,0,0,.242,2.114c-1.494-1.74-1.417-2.055-1.017-3.484C461.3,393.424,460.826,392.571,460.624,391.69Z" transform="translate(-202.557 -279.649)" fill="#404040" stroke="#fff" stroke-width="1" opacity="0.56"/>
        <path id="Path_15134" data-name="Path 15134" d="M152.545,293.083c0-.156,0-.313,0-.469l.464-.91,3.436.962C152.95,294.639,152.95,294.639,152.545,293.083Z" transform="translate(-75.595 -238.451)" fill="#404040" stroke="#fff" stroke-width="1" opacity="0.56"/>
        <path id="Path_15135" data-name="Path 15135" d="M412.3,366.774l-2.245,3.45a16.566,16.566,0,0,1-1.134-2.394,23.943,23.943,0,0,1,2.975-1.618Z" transform="translate(-181.247 -269.157)" fill="#404040" stroke="#fff" stroke-width="1" opacity="0.56"/>
        <path id="Path_15136" data-name="Path 15136" d="M101.082,295.244c.712.163,1.88.24,1.91.469.162,1.221.817,2.835-1.41,3.145C101.436,297.8,101.292,296.765,101.082,295.244Z" transform="translate(-54.387 -239.91)" fill="#404040" stroke="#fff" stroke-width="1" opacity="0.56"/>
        <path id="Path_15137" data-name="Path 15137" d="M118.162,304.972l-.651,2.239-3.647-1.831.069-.409Z" transform="translate(-59.654 -243.919)" fill="#404040" stroke="#fff" stroke-width="1" opacity="0.56"/>
        <path id="Path_15140" data-name="Path 15140" d="M456.312,401.513a2.927,2.927,0,0,1,.066-4.133l.591.228v3.634Z" transform="translate(-200.442 -282.001)" fill="#404040" stroke="#fff" stroke-width="1" opacity="0.56"/>
        <path id="Path_15142" data-name="Path 15142" d="M479.109,446.183l-5.318-.912C476.331,444.208,477.952,444.507,479.109,446.183Z" transform="translate(-207.983 -301.482)" fill="#404040" stroke="#fff" stroke-width="1" opacity="0.56"/>
        <path id="Path_15143" data-name="Path 15143" d="M26.754,387.648l1.595.224-1.595.337Z" transform="translate(-23.756 -277.991)" fill="#404040" stroke="#fff" stroke-width="1" opacity="0.56"/>
        <path id="Path_15144" data-name="Path 15144" d="M270.762,259.86a31.635,31.635,0,0,1-1.18,3.131c-.28.568-.84,1.389-1.305,1.41-2.7.123-2.906,3.285-5.058,3.993a6.722,6.722,0,0,0,.684,1.946c1,1.318,1.165,2.483-.186,3.628-1.145-.563-2.368-1.711-3.422-1.573-2.564.338-5.252-1.185-7.706.52a1.465,1.465,0,0,1-1.07-.041c-1.574-.5-2.517.251-3.222,1.537-3.754,2.065-5.372,1.643-8.219-1.618a9.224,9.224,0,0,0-3.453-1.89c-1.656-.69-3.377-1.219-5.07-1.817a8.089,8.089,0,0,0-.572-1.858c-.6-1.021-1.352-1.955-2.04-2.926l-1.745,1.358c1.066,1.3-.629,1.094-.9,1.662a3.7,3.7,0,0,1-1,.417c-2.189.211-2.665,1.249-1.9,3.276a20.045,20.045,0,0,1,.682,3.829c-1.722-.734-3-2.821-5.316-1.749a9.108,9.108,0,0,1-2.419-1.359c-.714-.758-1.63-1.915-1.5-2.75.223-1.444,1.572-1.852,3.051-1.448a4.773,4.773,0,0,0,1.408-.1c-2.721-4.023-4.089-4.379-7.964-2.286-1.38-1.084-2.833-2.089-4.121-3.275a2.065,2.065,0,0,1,.651-3.6c.261-.116.635-.178.754-.384,2.273-3.925,5.474-2.61,8.7-1.666a23.4,23.4,0,0,0,3.784.415c1.142.136,2.274.4,3.417.461a27.957,27.957,0,0,0,3.026-.135,20.678,20.678,0,0,1-.621-3.71c.064-1.806,1.151-2.529,2.981-2.805,2.3-.349,4.514-1.271,6.8-1.759a6.207,6.207,0,0,1,2.965.191c2.083.628,4.1,1.472,6.163,2.179a1.752,1.752,0,0,0,1.27.024c2.182-1.286,3.387.349,5.013,1.343,3.2,1.959,5.906,5.235,10.3,4.505a.9.9,0,0,1,.436.02Q266.815,258.405,270.762,259.86Zm-17.751,9.117c.183-5.342,4.47-3.8,7.39-4.576a31.425,31.425,0,0,0-3.674-.145C252.864,264.259,252.352,264.835,253.011,268.977Z" transform="translate(-97.799 -220.688)" fill="#404040" stroke="#fff" stroke-width="1" opacity="0.56"/>
        <path id="Path_15145" data-name="Path 15145" d="M363.47,263.81c.189,2.744.52,2.932,3.261,3.277a28.267,28.267,0,0,1,4.614,1.406c-1.937,1.039-3.387,1.824-4.845,2.595a7.379,7.379,0,0,1-1.972.952c-2.019.357-4.235.342-3.1,3.55.1.27-1.258,1.342-2.076,1.6-2.432.755-4.921,1.348-7.415,1.869a6.4,6.4,0,0,1-2.372-.233c-3.559-.677-6.961-2.338-10.774-1.48-.644.145-1.636-.544-2.246-1.094-2.273-2.054-4.537-3.8-7.951-3.418-.951.106-2.362-.9-3.018-1.8-1.444-1.977-2.683-3.958-5.352-4.54-.8-.174-1.414-1.185-2.113-1.812.991-.745,1.882-1.788,3-2.164a14.825,14.825,0,0,1,5.177-.834c1.637.062,3.231.9,4.881,1.134,1.028.143,2.332.122,1.8-1.76-.417-1.487.456-2.121,1.838-1.7,1.8.543,3.516,1.366,5.316,1.9,1.491.446,3.052.654,4.582.969,1.7.35,3.441.576,5.094,1.084a12.319,12.319,0,0,0,7.9.146C359.4,262.893,361.534,263.646,363.47,263.81Z" transform="translate(-143.826 -225.067)" fill="#404040" stroke="#fff" stroke-width="1" opacity="0.56"/>
        <path id="Path_15146" data-name="Path 15146" d="M212.321,275.884c3.874-2.093,5.243-1.738,7.964,2.286a4.78,4.78,0,0,1-1.408.1c-1.479-.4-2.828,0-3.051,1.448-.129.836.786,1.992,1.5,2.75a9.106,9.106,0,0,0,2.419,1.359c.179.186.468.56.52.529,1.052-.62,1.678-.256,2.183.765a16.738,16.738,0,0,0,1.431,1.989l-2.912.553c.938,1.825,1.889,3.707,2.888,5.564.1.181.484.206.737.3a14.522,14.522,0,0,1-1.646,1.414c-1.182.754-2.3,1.616-3.852.47-1.135-.837-2.644-1.159-3.807-1.968-.6-.419-.815-1.4-1.2-2.124l1.445-3.013-2.785-3.2c-.647-.845-1.318-1.674-1.935-2.54-.579-.814-1.1-1.668-2.009-3.055Z" transform="translate(-98.778 -231.413)" fill="#404040" stroke="#fff" stroke-width="1" opacity="0.56"/>
        <path id="Path_15147" data-name="Path 15147" d="M146.484,247.006l1.749-1.751c3.161.576,5.775,1.977,7.2,5.168l-1.026,2.321c-1.694,1.668-3.611,1.779-5.872,1.259-1.82-.418-3.943-1.87-5.591.5l-.881-3.956C143.654,249.511,145.855,249.242,146.484,247.006Z" transform="translate(-71.277 -219.309)" fill="#404040" stroke="#fff" stroke-width="1" opacity="0.56"/>
        <path id="Path_15148" data-name="Path 15148" d="M212.1,292.453l2.785,3.2-1.445,3.013c-.909-1.173-1.976-1.926-3.549-1.335l-2.657-3.093,1.78-1.755Z" transform="translate(-98.131 -238.76)" fill="#404040" stroke="#fff" stroke-width="1" opacity="0.56"/>
        <path id="Path_15149" data-name="Path 15149" d="M362.326,248.711c-.367,1.263-.412,2.8-1.184,3.724-1.009,1.21-2.3,2.674-4.464,1.839,2.76-1.065,4.531-2.859,4.742-5.907Z" transform="translate(-159.72 -220.592)" fill="#404040" stroke="#fff" stroke-width="1" opacity="0.56"/>
        <path id="Path_15150" data-name="Path 15150" d="M258.423,322.044c.063-2.564-1.264-4.664-2.367-6.808-.993-1.931-.256-3.7.178-5.53,2.081,1.286,3.295.026,4.586-1.426a36.693,36.693,0,0,1,3.333-2.975l2.189,1.312c1.253-.488,2.715-.722,3.7-1.535s1.851-1.192,2.543-.19a2.687,2.687,0,0,0,3.522,1.1,4.386,4.386,0,0,1,1.685.176,19.909,19.909,0,0,1-2.424,1.26c-1.231.449-1.938.886-1.64,2.523.179.982-.6,2.166-1.033,3.226-.405.994-.68,2.232-1.431,2.859a46.29,46.29,0,0,1-7.54,5.48C262.277,322.294,260.211,321.907,258.423,322.044Z" transform="translate(-118.049 -243.637)" fill="#404040" stroke="#fff" stroke-width="1" opacity="0.56"/>
        <path id="Path_15151" data-name="Path 15151" d="M396.61,374.371l-3.52,0c.663-3.075-1.419-5.1-3.1-7.042-.568-.657-2.524-.15-3.842-.09a2.633,2.633,0,0,0-.98.425l-2.647-5.636c.28-.493.5-1.35.853-1.413a1.644,1.644,0,0,0,1.58-1.872c0-.085.71-.165,1.089-.247q3.517,4.512,7.032,9.023a38.109,38.109,0,0,1,3.023,4.043A8.489,8.489,0,0,1,396.61,374.371Z" transform="translate(-170.37 -265.975)" fill="#404040" stroke="#fff" stroke-width="1" opacity="0.56"/>
        <path id="Path_15152" data-name="Path 15152" d="M277.652,290.878c.7-1.286,1.648-2.041,3.222-1.537a1.465,1.465,0,0,0,1.07.041c2.454-1.706,5.142-.183,7.706-.52,1.053-.139,2.276,1.009,3.421,1.573-1.949,1.1-3.892,2.213-5.849,3.3-.975.541-1.977,1.038-2.966,1.554-1.627.068-3.255.2-4.882.188s-2.018-.677-.845-1.959c1.471,1.162,2.464.683,3.3-.981Z" transform="translate(-127.153 -237.155)" fill="#404040" stroke="#fff" stroke-width="1" opacity="0.56"/>
        <path id="Path_15153" data-name="Path 15153" d="M318.624,330.954c1.167.554,2.042,1.062,2.979,1.393,1.815.642,3.705,1.084,5.488,1.8a19.536,19.536,0,0,1,4.133,2.244c.4.286.444,1.4.257,2.011-.1.318-1.147.656-1.607.5-3.951-1.31-7.893-2.658-11.76-4.193-.607-.24-1.093-1.464-1.116-2.249C316.985,332,317.993,331.506,318.624,330.954Z" transform="translate(-143.368 -254.627)" fill="#404040" stroke="#fff" stroke-width="1" opacity="0.56"/>
        <path id="Path_15154" data-name="Path 15154" d="M276.763,296.534c-1.173,1.282-.78,1.952.845,1.959s3.255-.12,4.882-.188c.741,1.55,3.364,1.969,2.64,4.4a4.386,4.386,0,0,0-1.685-.176,2.687,2.687,0,0,1-3.522-1.1c-.692-1-1.552-.628-2.543.19s-2.447,1.048-3.7,1.536a9.744,9.744,0,0,0-.209-2.594c-.491-1.366.871-4.462,2.3-4.677C276.061,295.835,276.43,296.3,276.763,296.534Z" transform="translate(-125.388 -240.171)" fill="#404040" stroke="#fff" stroke-width="1" opacity="0.56"/>
        <path id="Path_15155" data-name="Path 15155" d="M127.687,411.742c-1.639.153-3.67-.68-4.4,1.756-.684-.932-1.374-1.859-2.049-2.8-1.71-2.376-1.664-4.68.3-6.9,4.518.213,7.251-3.245,10.7-5.225,1-.574,1.96-1.218,2.938-1.829.266.251.688.458.774.761,1.17,4.1,4.282,6.753,7.051,9.673.188.2.073.683.1,1.034-3,.7-5.987,1.473-9.011,2.047a4.671,4.671,0,0,1-2.483-.563C128.563,408.369,128.07,408.6,127.687,411.742Z" transform="translate(-62.186 -281.742)" fill="#404040" stroke="#fff" stroke-width="1" opacity="0.56"/>
        <path id="Path_15156" data-name="Path 15156" d="M170.407,430.942l-.467.906-1.312-.874c-.959-1.726-.643-3.22.353-4.929.71-1.217.673-2.87.968-4.328a37.744,37.744,0,0,1,4.5-.768c1.861-.1,3.313,2.986,2.365,4.925a10.522,10.522,0,0,1-1.169,1.581,6.286,6.286,0,0,0-1.337-.179C172.046,427.451,171.534,429.531,170.407,430.942Z" transform="translate(-81.986 -291.714)" fill="#404040" stroke="#fff" stroke-width="1" opacity="0.56"/>
        <path id="Path_15157" data-name="Path 15157" d="M172.059,435.375c1.127-1.411,1.638-3.49,3.9-3.666a6.283,6.283,0,0,1,1.337.179l1.342,3.928-3.7,2.066a25.407,25.407,0,0,0-1.641-1.988C173.014,435.6,172.48,435.541,172.059,435.375Z" transform="translate(-83.637 -296.147)" fill="#404040" stroke="#fff" stroke-width="1" opacity="0.56"/>
        <path id="Path_15158" data-name="Path 15158" d="M38.516,374.169,37.192,370.2q.228-.677.458-1.355a18.723,18.723,0,0,1,2.537-.38c2.76-.049,5.521-.018,8.492-.018V349.567l2.6-.119c2.585,2.025,5.139,4.093,7.767,6.062,1.925,1.442,3.948,2.753,5.928,4.122l1.2,1.826.546-.235v5.419A9.946,9.946,0,0,1,64.3,368.37a36.2,36.2,0,0,1-4.651.949c-1.228.6-2.4,1.536-3.692,1.732-3.951.6-5.462,3.525-6.874,6.644l-4.4.879c-.268-.666-.555-1.325-.8-2a2.142,2.142,0,0,0-2.8-1.587C40.3,375.135,39.375,374.468,38.516,374.169Z" transform="translate(-28.057 -262.248)" fill="#404040" stroke="#fff" stroke-width="1" opacity="0.56"/>
        <path id="Path_15159" data-name="Path 15159" d="M75.354,371.2A36.166,36.166,0,0,0,80,370.248a9.949,9.949,0,0,0,2.416-1.729c.227-1.865.453-3.729.662-5.444l2.379-.685L96.939,354l5.276,1.756c.568,2.427,1.728,4.621,1.52,7.355a11.973,11.973,0,0,1-1.917,6.085,35.859,35.859,0,0,0-2.245,4.648c-1.353.753-2.687,1.469-4.312.662a1.591,1.591,0,0,0-1.25.189c-2.356,1.359-4.615.24-6.7-.52-3.078-1.124-3.943-1.039-5.533,1.825-.247.446-.467.908-.7,1.362l-1.753-.877C77.7,374.955,74.888,374.31,75.354,371.2Z" transform="translate(-43.763 -264.126)" fill="#404040" stroke="#fff" stroke-width="1" opacity="0.56"/>
        <path id="Path_15160" data-name="Path 15160" d="M51.6,348.86l-2.6.119v18.882c-2.971,0-5.733-.031-8.492.018a18.732,18.732,0,0,0-2.537.38c.523-.287,1.04-.807,1.571-.822,2.9-.082,5.808-.039,8.9-.039V348.776l1.878-.755Z" transform="translate(-28.378 -261.66)" fill="#404040" stroke="#fff" stroke-width="1" opacity="0.56"/>
        <path id="Path_15161" data-name="Path 15161" d="M38.72,347v-5.626h5.866l.7-5.352.457,3.485-.683,2.181H39.438Z" transform="translate(-28.687 -256.715)" fill="#404040" stroke="#fff" stroke-width="1" opacity="0.56"/>
        <path id="Path_15162" data-name="Path 15162" d="M89.23,367.652l-2.379.685c-.209,1.715-.435,3.579-.662,5.444v-5.419l-.546.235-1.2-1.826Z" transform="translate(-47.532 -269.387)" fill="#404040" stroke="#fff" stroke-width="1" opacity="0.56"/>
        <path id="Path_15163" data-name="Path 15163" d="M162.583,473.441l-5.729,3.526a6.8,6.8,0,0,0-1.921,1.2c-1.556,1.968-3.374,3.312-6,3.217l-.876-.44-3.517-.444c-1.305-2-2.242-4.148-1.7-6.577.178-.791.844-1.983,1.436-2.081,2.3-.38,2.541-1.865,2.466-3.688,2.814.4,5.69.5,7.784,2.976.466.552,1.713.442,2.651.647-.992-2.061-2.221-3.564-2.339-5.151-.122-1.624.053-3.7,2.032-4.676h2.618l3.965,3.12c-.085.63-.188,1.258-.251,1.891C162.989,469.119,162.789,471.28,162.583,473.441Z" transform="translate(-71.532 -308.611)" fill="#404040" stroke="#fff" stroke-width="1" opacity="0.56"/>
        <path id="Path_15164" data-name="Path 15164" d="M168.3,454.869h-2.618a1.645,1.645,0,0,0-.032-2.747c-2.644-2.241-1.286-4.827-.892-7.352q.441,1.1.881,2.205C165.215,450.049,167.216,452.3,168.3,454.869Z" transform="translate(-80.338 -301.532)" fill="#404040" stroke="#fff" stroke-width="1" opacity="0.56"/>
        <path id="Path_15165" data-name="Path 15165" d="M167.565,438l1.312.874L168,440.648l-2.187.873C164.929,439.616,165.835,438.6,167.565,438Z" transform="translate(-80.922 -298.743)" fill="#404040" stroke="#fff" stroke-width="1" opacity="0.56"/>
        <path id="Path_15166" data-name="Path 15166" d="M165.722,443.375l2.187-.873c.6,1.783-.241,2.838-1.783,3.539q-.44-1.1-.881-2.205Z" transform="translate(-80.829 -300.597)" fill="#404040" stroke="#fff" stroke-width="1" opacity="0.56"/>
        <path id="Path_15167" data-name="Path 15167" d="M182.509,328.5q0-2.643,0-5.285l5.279-2.2.892,2.2-2.854,1.352c-.064,1.168.247,2.512-.258,2.989C184.874,328.207,183.56,328.212,182.509,328.5Z" transform="translate(-87.944 -250.528)" fill="#404040" stroke="#fff" stroke-width="1" opacity="0.56"/>
        <path id="Path_15168" data-name="Path 15168" d="M252.555,299.317a36.672,36.672,0,0,0-3.333,2.975c-1.292,1.453-2.506,2.712-4.586,1.426a18.264,18.264,0,0,0-2.706-2.855,25.9,25.9,0,0,0-3.62-1.548,5.909,5.909,0,0,0-6.046.446c-.253-.1-.64-.122-.737-.3-1-1.857-1.949-3.738-2.888-5.564l2.912-.553a16.736,16.736,0,0,1-1.431-1.989c-.506-1.021-1.132-1.384-2.183-.765-.052.031-.341-.343-.52-.529,2.316-1.072,3.594,1.015,5.316,1.749.891-.228,1.795-.411,2.667-.7s1.916-1.171,2.5-.915c2.346,1.029,4.971,1.99,6.665,3.767a16.32,16.32,0,0,0,4.841,3.493C250.5,297.993,251.508,298.692,252.555,299.317Z" transform="translate(-106.451 -237.65)" fill="#404040" stroke="#fff" stroke-width="1" opacity="0.56"/>
        <path id="Path_15169" data-name="Path 15169" d="M204.46,295.194l2.657,3.093c-1.74,1.647-2.621-.69-3.97-.858-1.639-.126-2.3-1.229-2.638-2.652Z" transform="translate(-95.361 -239.718)" fill="#404040" stroke="#fff" stroke-width="1" opacity="0.56"/>
        <path id="Path_15170" data-name="Path 15170" d="M145.316,494.256l.876.44,6.175,8.375c-2.244,2.252-4.447,4.547-6.769,6.714a2.147,2.147,0,0,1-1.969.282c-1.605-.872-2.43-.42-3.285,1.091-.406.718-1.526,1.03-2.379,1.562l-1.036-3.948-.9-3.926a40.48,40.48,0,0,0,2.151-6.5c.408-2.539.878-3.148,3.548-3.2A16.316,16.316,0,0,0,145.316,494.256Z" transform="translate(-68.79 -321.925)" fill="#404040" stroke="#fff" stroke-width="1" opacity="0.56"/>
        <path id="Path_15171" data-name="Path 15171" d="M159.489,500.285l-6.175-8.375c2.626.095,4.444-1.249,6-3.217a6.8,6.8,0,0,1,1.921-1.2c1.36.539,2.769.981,4.067,1.641,1.762.9,2.73,2.443,1.983,4.368-.961,2.476-2.257,4.823-3.409,7.225Z" transform="translate(-75.912 -319.138)" fill="#404040" stroke="#fff" stroke-width="1" opacity="0.56"/>
        <path id="Path_15172" data-name="Path 15172" d="M158.987,535.856c-.7-.822-1.562-1.586-1.456-1.762a4.4,4.4,0,0,1,1.822-1.757c.285-.124,1.027.8,1.561,1.252Z" transform="translate(-77.647 -337.614)" fill="#404040" stroke="#fff" stroke-width="1" opacity="0.56"/>
        <path id="Path_15173" data-name="Path 15173" d="M135.739,512.271l.9,3.926a5.6,5.6,0,0,0-.824,1.608c-.238,1.656-.326,3.335-.473,5-.007-2.994-.035-5.988,0-8.982A6.573,6.573,0,0,1,135.739,512.271Z" transform="translate(-68.497 -329.349)" fill="#404040" stroke="#fff" stroke-width="1" opacity="0.56"/>
        <path id="Path_15174" data-name="Path 15174" d="M176.532,475.325c.206-2.161.406-4.322.62-6.482.063-.633.166-1.26.251-1.891l1.362-.431c-.014,1.988-.064,3.976-.019,5.962a9.4,9.4,0,0,0,.429,1.858c.355,1.509.849.472,1.31.074.53,1.178,1.366,2.33,1.473,3.546.061.691-1.068,1.488-1.66,2.237a10.206,10.206,0,0,0-.965-1.8C178.454,477.33,177.471,476.345,176.532,475.325Z" transform="translate(-85.481 -310.495)" fill="#404040" stroke="#fff" stroke-width="1" opacity="0.56"/>
        <path id="Path_15175" data-name="Path 15175" d="M182.023,474.415c-.46.4-.955,1.435-1.31-.074a9.393,9.393,0,0,1-.429-1.858c-.044-1.986.006-3.974.019-5.962l1.862,3.364,2.058.562-2.742.124Z" transform="translate(-87.02 -310.495)" fill="#404040" stroke="#fff" stroke-width="1" opacity="0.56"/>
        <path id="Path_15176" data-name="Path 15176" d="M123.34,274.267q0-.434-.008-.868l1.34-1.768c1.062-.108,2.123-.211,3.184-.323q2.582-.273,5.162-.556l.432.892-3.51,3.521-1.76.436Z" transform="translate(-63.556 -229.817)" fill="#404040" stroke="#fff" stroke-width="1" opacity="0.56"/>
        <path id="Path_15177" data-name="Path 15177" d="M133.947,269.205q-2.581.279-5.162.556c-1.061.112-2.122.216-3.184.323q-.008-.662-.016-1.324l1.77-1.761,6.593.437Q133.948,268.321,133.947,269.205Z" transform="translate(-64.485 -228.271)" fill="#404040" stroke="#fff" stroke-width="1" opacity="0.56"/>
        <path id="Path_15178" data-name="Path 15178" d="M155.623,276.456l-3.058-5.162c1.611-.744,2.778-.011,3.83,1.141C157.939,274.127,156.137,275.166,155.623,276.456Z" transform="translate(-75.604 -229.917)" fill="#404040" stroke="#fff" stroke-width="1" opacity="0.56"/>
        <path id="Path_15179" data-name="Path 15179" d="M102.232,274.763l-5.3,2.2c-1.868-2.094-1.868-2.094.44-3.962l4.846.892Q102.224,274.329,102.232,274.763Z" transform="translate(-52.118 -230.744)" fill="#404040" stroke="#fff" stroke-width="1" opacity="0.56"/>
        <path id="Path_15180" data-name="Path 15180" d="M106.884,273.219q-.009-.436-.018-.871c2-.634,4.343-.67,5.3-3.1l5.709.436q.008.662.016,1.324l-1.34,1.768-4.4,1.319Z" transform="translate(-56.771 -229.199)" fill="#404040" stroke="#fff" stroke-width="1" opacity="0.56"/>
        <path id="Path_15181" data-name="Path 15181" d="M120.325,266.6l-5.709-.436c-2.553-2.87-2.553-2.87,1.117-4.237.2-.075.417-.116.626-.174,1,.508,2.019,1,3.011,1.529.921.495,1.817,1.037,2.724,1.558Z" transform="translate(-59.225 -226.107)" fill="#404040" stroke="#fff" stroke-width="1" opacity="0.56"/>
        <path id="Path_15182" data-name="Path 15182" d="M67.984,383.25c-.466,3.113,2.345,3.758,3.975,5.292l-2.649,2.643-1.763.439c-.7-.143-1.4-.313-2.1-.423-2.036-.319-3.4.2-3.187,2.63-1.755-.423-3.9.022-4.841-2.2,1.412-3.119,2.923-6.042,6.874-6.644C65.58,384.786,66.756,383.849,67.984,383.25Z" transform="translate(-36.393 -276.178)" fill="#404040" stroke="#fff" stroke-width="1" opacity="0.56"/>
        <path id="Path_15183" data-name="Path 15183" d="M136.955,294.073l-.885-2.635,2.643-.454,1.327,1.331Z" transform="translate(-68.806 -238.154)" fill="#404040" stroke="#fff" stroke-width="1" opacity="0.56"/>
        <path id="Path_15184" data-name="Path 15184" d="M255.562,295.48c-1.047-.625-2.058-1.323-3.149-1.859a16.323,16.323,0,0,1-4.841-3.493c-1.694-1.777-4.319-2.738-6.665-3.767-.585-.256-1.637.633-2.5.915s-1.776.468-2.667.7a20.045,20.045,0,0,0-.683-3.829c-.77-2.027-.293-3.065,1.9-3.276a3.7,3.7,0,0,0,1-.417c.428.233,1.2.43,1.228.7.17,1.7,1.061,1.757,2.373,1.3a8.3,8.3,0,0,1,1.66-.236c1.693.6,3.414,1.128,5.07,1.817a9.223,9.223,0,0,1,3.453,1.889c2.847,3.261,4.464,3.683,8.219,1.618l4.18,1.66c-.84,1.663-1.832,2.143-3.3.981-.333-.232-.7-.7-.995-.655-1.425.215-2.787,3.31-2.3,4.677a9.747,9.747,0,0,1,.209,2.594Z" transform="translate(-109.457 -233.813)" fill="#404040" stroke="#fff" stroke-width="1" opacity="0.56"/>
        <path id="Path_15185" data-name="Path 15185" d="M245.486,280.095a8.311,8.311,0,0,0-1.66.236c-1.312.46-2.2.4-2.373-1.3-.028-.273-.8-.471-1.228-.7.275-.568,1.97-.363.9-1.662l1.745-1.358c.688.971,1.437,1.905,2.04,2.926A8.086,8.086,0,0,1,245.486,280.095Z" transform="translate(-111.729 -231.696)" fill="#404040" stroke="#fff" stroke-width="1" opacity="0.56"/>
        <path id="Path_15186" data-name="Path 15186" d="M285.5,279.952c-.659-4.142-.148-4.718,3.716-4.72a31.51,31.51,0,0,1,3.674.145C289.969,276.155,285.682,274.611,285.5,279.952Z" transform="translate(-130.287 -231.663)" fill="#404040" stroke="#fff" stroke-width="1" opacity="0.56"/>
      </g>
    </g>
  </g>
</svg>
