<?xml version="1.0" encoding="UTF-8"?>
<svg width="40px" height="40px" viewBox="0 0 40 40" version="1.1" xmlns="http://www.w3.org/2000/svg" xmlns:xlink="http://www.w3.org/1999/xlink">
    <!-- Generator: Sketch 48.2 (47327) - http://www.bohemiancoding.com/sketch -->
    <title>Shape</title>
    <desc>Created with Sketch.</desc>
    <defs></defs>
    <g id="Faktaruta" stroke="none" stroke-width="1" fill="none" fill-rule="evenodd" transform="translate(-647.000000, -701.000000)">
        <g id="Group" transform="translate(240.000000, 699.000000)" fill="#0079B2" fill-rule="nonzero">
            <path d="M427,2 C415.954167,2 407,10.9541667 407,22 C407,33.0458333 415.954167,42 427,42 C438.045833,42 447,33.0458333 447,22 C447,10.9541667 438.045833,2 427,2 Z M422.104167,30.2895833 L418.054167,30.2895833 L418.054167,17.25625 L422.104167,17.25625 L422.104167,30.2895833 Z M420.054167,15.65625 C418.775,15.65625 417.947917,14.75 417.947917,13.6291667 C417.947917,12.4854167 418.8,11.60625 420.10625,11.60625 C421.4125,11.60625 422.2125,12.4854167 422.2375,13.6291667 C422.2375,14.75 421.4125,15.65625 420.054167,15.65625 Z M436.895833,30.2895833 L432.845833,30.2895833 L432.845833,23.0666667 C432.845833,21.3854167 432.258333,20.24375 430.79375,20.24375 C429.675,20.24375 429.010417,21.0166667 428.716667,21.7604167 C428.608333,22.025 428.58125,22.4 428.58125,22.7729167 L428.58125,30.2875 L424.529167,30.2875 L424.529167,21.4125 C424.529167,19.7854167 424.477083,18.425 424.422917,17.2541667 L427.941667,17.2541667 L428.127083,19.0645833 L428.208333,19.0645833 C428.741667,18.2145833 430.047917,16.9604167 432.233333,16.9604167 C434.897917,16.9604167 436.895833,18.7458333 436.895833,22.5833333 L436.895833,30.2895833 Z" id="Shape"></path>
        </g>
    </g>
</svg>