<svg width="40px" height="40px" viewBox="235 0 40 40" version="1.1" xmlns="http://www.w3.org/2000/svg" xmlns:xlink="http://www.w3.org/1999/xlink">
    <desc>pinterest</desc>
    <g id="pinterest" stroke="none" stroke-width="1" fill="none" fill-rule="evenodd" transform="translate(235.000000, 0.000000)">
        <path d="M19.8172949,0.567627494 C10.6077516,0.571830904 2.66105393,7.02871216 0.771950666,16.0424236 C-1.1171526,25.0561351 3.56821144,34.1604573 12.0010643,37.8621729 C11.9457206,36.5027051 11.9911308,34.8707761 12.3402217,33.3921064 C12.7148559,31.8112639 14.844878,22.7831486 14.844878,22.7831486 C14.4218102,21.8118354 14.2099484,20.7617165 14.2233259,19.7023503 C14.2233259,16.8173836 15.8949889,14.6632373 17.9781818,14.6632373 C19.7491796,14.6632373 20.604878,15.9929047 20.604878,17.5865188 C20.604878,19.366031 19.4696231,22.0296231 18.8849667,24.4959645 C18.3968071,26.5607095 19.9208869,28.2451441 21.9572506,28.2451441 C25.6468293,28.2451441 28.1301996,23.5082927 28.1301996,17.8944568 C28.1301996,13.6273171 25.2565854,10.4344124 20.0287361,10.4344124 C14.1225721,10.4344124 10.4443459,14.8335255 10.4443459,19.757694 C10.4443459,21.4605765 10.9438581,22.6497561 11.7215078,23.576408 C12.0819512,24.0021286 12.1316186,24.1724169 12.0053215,24.6619956 C11.911663,25.0196009 11.6973836,25.8823947 11.6094013,26.2229712 C11.4802661,26.715388 11.0800887,26.8927716 10.6345011,26.7097118 C7.91414634,25.5985809 6.64691796,22.6199557 6.64691796,19.2723725 C6.64691796,13.7380044 11.3113969,7.11095344 20.5608869,7.11095344 C27.993969,7.11095344 32.8854989,12.4892239 32.8854989,18.2634146 C32.8854989,25.9008426 28.6396452,31.6026608 22.3843902,31.6026608 C20.2827494,31.6026608 18.3059867,30.4674058 17.6276718,29.1760532 C17.6276718,29.1760532 16.4924169,33.6617295 16.2582705,34.5273614 C15.8453215,36.0287361 15.0378714,37.5286918 14.2985366,38.6980044 C21.6148321,40.8713853 29.5262714,38.569138 34.53402,32.8094315 C39.5417685,27.049725 40.722022,18.8950812 37.5528131,11.9518917 C34.3836043,5.00870228 27.4495729,0.557812026 19.8172949,0.567627494 L19.8172949,0.567627494 Z" id="Shape" fill="#CB2027"></path>
    </g>
</svg>