<?xml version="1.0" encoding="utf-8"?>
<!-- Generator: Adobe Illustrator 22.1.0, SVG Export Plug-In . SVG Version: 6.00 Build 0)  -->
<svg version="1.1" id="Layer_1" xmlns="http://www.w3.org/2000/svg" xmlns:xlink="http://www.w3.org/1999/xlink" x="0px" y="0px"
	 viewBox="0 0 40 40" style="enable-background:new 0 0 40 40;" xml:space="preserve">
<style type="text/css">
	.st0{fill:#470A68;}
	.st1{fill:#FFFFFF;}
</style>
<title>Shape</title>
<desc>Created with Sketch.</desc>
<circle class="st0" cx="20" cy="20" r="20"/>
<g>
	<path class="st1" d="M26.4,17.3c0.6,0,1,0.2,1.4,0.6c0.4,0.4,0.6,0.9,0.6,1.4v3.5c0,0.1,0,0.3-0.1,0.4s-0.2,0.1-0.4,0.1h-1.5v3
		c0,0.3-0.1,0.5-0.3,0.7c-0.2,0.2-0.4,0.3-0.7,0.3h-10c-0.3,0-0.5-0.1-0.7-0.3c-0.2-0.2-0.3-0.4-0.3-0.7v-3h-1.5
		c-0.1,0-0.3,0-0.4-0.1s-0.1-0.2-0.1-0.4v-3.5c0-0.6,0.2-1,0.6-1.4s0.9-0.6,1.4-0.6v-5c0-0.3,0.1-0.5,0.3-0.7s0.4-0.3,0.7-0.3H24
		c0.3,0,0.5,0.1,0.7,0.3l1.4,1.4c0.2,0.2,0.3,0.4,0.3,0.7V17.3z M24.4,18.3v-3h-1.5c-0.1,0-0.3,0-0.4-0.1s-0.1-0.2-0.1-0.4v-1.5h-6
		v5H24.4z M24.4,25.3v-3h-8v3H24.4z M25.9,20.6c0.2,0,0.4-0.1,0.5-0.2c0.1-0.1,0.2-0.3,0.2-0.5s-0.1-0.4-0.2-0.5
		c-0.1-0.1-0.3-0.2-0.5-0.2c-0.2,0-0.4,0.1-0.5,0.2c-0.1,0.1-0.2,0.3-0.2,0.5s0.1,0.4,0.2,0.5C25.5,20.5,25.7,20.6,25.9,20.6z"/>
</g>
</svg>
