<?xml version="1.0" encoding="UTF-8"?>
<svg width="40px" height="40px" viewBox="0 0 40 40" version="1.1" xmlns="http://www.w3.org/2000/svg" xmlns:xlink="http://www.w3.org/1999/xlink">
    <!-- Generator: Sketch 48.2 (47327) - http://www.bohemiancoding.com/sketch -->
    <title>Shape</title>
    <desc>Created with Sketch.</desc>
    <defs></defs>
    <g id="Faktaruta" stroke="none" stroke-width="1" fill="none" fill-rule="evenodd" transform="translate(-514.000000, -701.000000)">
        <g id="Group" transform="translate(240.000000, 699.000000)" fill="#0DA4EE" fill-rule="nonzero">
            <path d="M294,2 C282.954167,2 274,10.9541667 274,22 C274,33.0458333 282.954167,42 294,42 C305.045833,42 314,33.0458333 314,22 C314,10.9541667 305.045833,2 294,2 Z M302.135417,18.3833333 C302.14375,18.5541667 302.145833,18.725 302.145833,18.8916667 C302.145833,24.1 298.185417,30.1020833 290.939583,30.1020833 C288.714583,30.1020833 286.64375,29.4520833 284.902083,28.33125 C285.208333,28.36875 285.522917,28.3833333 285.841667,28.3833333 C287.6875,28.3833333 289.385417,27.75625 290.733333,26.6979167 C289.010417,26.6645833 287.55625,25.5270833 287.054167,23.9645833 C287.29375,24.0083333 287.539583,24.0333333 287.79375,24.0333333 C288.152083,24.0333333 288.502083,23.9854167 288.83125,23.8958333 C287.029167,23.5333333 285.670833,21.9416667 285.670833,20.0333333 L285.670833,19.9854167 C286.202083,20.2791667 286.810417,20.4583333 287.45625,20.4791667 C286.397917,19.7708333 285.704167,18.5666667 285.704167,17.1979167 C285.704167,16.4770833 285.897917,15.7979167 286.2375,15.2166667 C288.18125,17.6 291.08125,19.1666667 294.35625,19.3354167 C294.2875,19.0458333 294.254167,18.7458333 294.254167,18.4354167 C294.254167,16.2625 296.016667,14.4958333 298.19375,14.4958333 C299.325,14.4958333 300.35,14.975 301.06875,15.7416667 C301.966667,15.5625 302.808333,15.2375 303.56875,14.7854167 C303.275,15.7041667 302.652083,16.4770833 301.8375,16.9666667 C302.635417,16.86875 303.39375,16.6583333 304.1,16.34375 C303.572917,17.1333333 302.904167,17.8291667 302.135417,18.3833333 Z" id="Shape"></path>
        </g>
    </g>
</svg>